<svg width="1437" height="595" viewBox="0 0 1437 595" fill="none" xmlns="http://www.w3.org/2000/svg">
<path d="M550.867 213.303V233.035H511.927V342.415H487.942V233.035H449V213.303H550.867Z" fill="white"/>
<path d="M614.637 342.415H604.761C602.786 342.415 601.092 342.1 599.963 341.477C598.835 340.851 597.706 339.587 597.141 337.681L595.168 331.164C592.911 333.246 590.653 335.077 588.395 336.655C586.138 338.232 583.879 339.557 581.622 340.628C579.082 341.7 576.545 342.504 574.005 343.038C571.183 343.575 568.361 343.842 564.975 343.842C561.025 343.842 557.639 343.322 554.253 342.281C551.149 341.238 548.327 339.677 545.788 337.592C543.53 335.508 541.836 332.92 540.425 329.823C539.014 326.729 538.449 323.128 538.449 319.021C538.449 315.567 539.296 312.161 541.271 308.797C542.964 305.433 546.069 302.397 550.301 299.689C554.534 296.982 560.179 294.733 566.951 292.95C574.005 291.163 582.752 290.15 593.193 289.914V284.554C593.193 278.424 591.781 273.885 589.241 270.938C586.702 267.991 583.033 266.519 577.954 266.519C574.568 266.519 571.465 266.937 569.208 267.769C566.668 268.604 564.692 269.539 562.999 270.582C561.306 271.623 559.614 272.561 557.921 273.395C556.51 274.227 554.816 274.645 553.123 274.645C551.712 274.645 550.302 274.258 549.455 273.485C548.327 272.711 547.48 271.756 546.634 270.627L542.682 263.573C553.123 253.931 565.82 249.108 580.776 249.108C586.137 249.108 590.936 249.985 595.168 251.743C599.401 253.499 602.787 255.94 605.891 259.065C608.712 262.19 610.969 265.924 612.38 270.271C614.073 274.614 614.637 279.375 614.637 284.554V342.415ZM571.746 328.663C574.285 328.663 576.263 328.454 578.238 328.039C579.931 327.622 581.905 326.996 583.598 326.164C585.291 325.329 586.984 324.302 588.395 323.083C590.088 321.862 591.5 320.42 593.193 318.754V303.307C586.703 303.604 581.341 304.153 577.108 304.957C572.875 305.761 569.207 306.788 566.667 308.037C564.127 309.287 562.152 310.748 561.023 312.412C560.177 314.078 559.613 315.896 559.613 317.86C559.613 321.728 560.742 324.497 562.999 326.164C565.257 327.831 568.077 328.663 571.746 328.663Z" fill="white"/>
<path d="M636.366 342.415V250.805H649.91C652.732 250.805 654.707 252.144 655.553 254.824L656.964 262.056C658.94 260.15 660.634 258.425 662.892 256.877C664.867 255.327 667.124 253.989 669.381 252.859C671.639 251.726 674.177 250.864 676.717 250.268C679.256 249.673 682.078 249.375 685.182 249.375C690.261 249.375 694.777 250.224 698.445 251.921C702.395 253.616 705.499 255.998 708.321 259.065C710.861 262.128 712.835 265.79 714.246 270.045C715.374 274.303 716.221 278.989 716.221 284.109V342.415H694.212V284.109C694.212 278.513 692.8 274.183 690.261 271.116C687.721 268.053 683.772 266.519 678.692 266.519C674.742 266.519 671.074 267.382 667.97 269.107C664.584 270.835 661.479 273.187 658.375 276.161V342.415H636.366Z" fill="white"/>
<path d="M769.553 249.197C773.504 249.197 777.17 249.598 780.556 250.402C783.943 251.206 787.049 252.38 789.87 253.93H816.393V262.145C816.393 263.514 815.831 264.585 815.266 265.359C814.42 266.132 813.289 266.667 811.596 266.964L803.414 268.484C803.979 270.031 804.543 271.667 804.825 273.395C805.107 275.12 805.106 276.935 805.106 278.841C805.106 283.366 804.261 287.456 802.568 291.118C800.593 294.778 798.053 297.889 794.949 300.449C791.845 303.009 788.177 304.987 783.662 306.387C779.429 307.784 774.632 308.485 769.553 308.485C765.885 308.485 762.779 308.157 759.393 307.503C756.571 309.228 755.161 311.162 755.161 313.305C755.161 315.15 756.008 316.505 757.701 317.367C759.394 318.23 761.651 318.842 764.191 319.198C767.013 319.555 770.118 319.78 773.786 319.869C777.172 319.958 780.84 320.15 784.508 320.448C788.176 320.746 791.844 321.266 795.23 322.012C798.898 322.755 802.003 323.932 804.825 325.538C807.365 327.146 809.622 329.333 811.315 332.102C813.008 334.868 813.855 338.424 813.855 342.771C813.855 346.82 813.009 350.746 811.034 354.555C809.058 358.365 806.235 361.76 802.285 364.735C798.616 367.712 793.821 370.108 788.46 371.922C783.098 373.739 776.607 374.647 769.834 374.647C762.78 374.647 756.854 373.976 751.493 372.637C746.414 371.299 742.181 369.512 738.795 367.281C735.409 365.049 733.152 362.472 731.459 359.556C729.766 356.64 728.919 353.604 728.919 350.448C728.919 346.163 730.049 342.562 732.87 339.646C735.41 336.73 739.078 334.409 743.592 332.681C741.335 331.431 739.641 329.764 738.23 327.68C736.819 325.599 736.257 322.888 736.257 319.555C736.257 318.186 736.537 316.772 736.819 315.314C737.383 313.856 738.232 312.411 739.079 310.984C740.207 309.556 741.336 308.201 742.746 306.921C744.157 305.641 746.131 304.495 748.106 303.485C743.309 300.983 739.643 297.649 737.103 293.483C734.563 289.318 733.151 284.437 733.151 278.841C733.151 274.316 733.998 270.223 735.973 266.564C737.666 262.902 740.206 259.777 743.592 257.189C746.696 254.598 750.647 252.62 754.879 251.25C759.394 249.881 764.192 249.197 769.553 249.197ZM793.538 346.522C793.538 344.735 792.974 343.277 792.127 342.145C790.999 341.015 789.586 340.135 787.611 339.512C785.918 338.886 783.661 338.424 781.121 338.126C778.582 337.831 776.043 337.606 773.221 337.459C770.681 337.308 767.577 337.161 764.756 337.011C761.934 336.863 759.112 336.61 756.29 336.254C753.751 337.623 751.777 339.245 750.366 341.118C748.673 342.993 747.825 345.153 747.825 347.593C747.825 349.199 748.389 350.701 749.236 352.101C750.082 353.501 751.211 354.706 752.904 355.719C754.879 356.729 757.136 357.519 759.958 358.084C762.498 358.649 766.168 358.933 770.118 358.933C774.069 358.933 777.735 358.618 780.556 357.995C783.66 357.369 786.201 356.506 788.176 355.404C789.869 354.305 791.28 352.994 792.408 351.475C793.255 349.958 793.538 348.305 793.538 346.522ZM769.553 294.377C772.093 294.377 774.632 294.004 776.608 293.261C778.583 292.515 780.275 291.488 781.686 290.181C783.097 288.87 783.943 287.292 784.789 285.447C785.353 283.602 785.638 281.579 785.638 279.375C785.638 274.853 784.226 271.266 781.686 268.617C778.864 265.968 774.915 264.644 769.553 264.644C763.91 264.644 759.96 265.968 757.42 268.617C754.598 271.266 753.188 274.853 753.188 279.375C753.188 281.518 753.468 283.513 754.315 285.358C754.879 287.203 756.009 288.797 757.42 290.136C758.549 291.474 760.241 292.515 762.499 293.261C764.474 294.004 766.731 294.377 769.553 294.377Z" fill="white"/>
<path d="M868.03 249.375C873.674 249.375 879.037 250.299 883.834 252.144C888.631 253.989 892.862 256.683 896.248 260.225C899.916 263.767 902.738 268.111 904.713 273.259C906.688 278.41 907.535 284.287 907.535 290.896C907.535 292.563 907.536 293.946 907.254 295.048C907.254 296.147 906.972 297.012 906.408 297.635C906.126 298.262 905.561 298.707 904.997 298.974C904.151 299.244 903.585 299.378 902.456 299.378H846.021C846.585 308.783 849.127 315.687 853.359 320.092C857.874 324.497 863.798 326.698 870.852 326.698C874.52 326.698 877.627 326.283 880.166 325.449C882.706 324.616 884.961 323.693 886.937 322.68C888.912 321.67 890.604 320.746 892.015 319.914C893.426 319.079 894.837 318.664 896.248 318.664C897.094 318.664 897.943 318.842 898.508 319.199C899.354 319.555 899.917 320.061 900.2 320.718L906.689 328.752C904.149 331.609 901.612 334.005 898.508 335.939C895.404 337.876 892.299 339.423 888.912 340.584C885.809 341.744 882.422 342.562 879.036 343.038C875.65 343.514 872.265 343.753 868.879 343.753C862.671 343.753 856.745 342.696 851.384 340.584C845.74 338.469 840.941 335.344 836.991 331.209C833.04 327.071 829.656 321.951 827.399 315.851C825.141 309.749 824.012 302.681 824.012 294.644C824.012 288.394 824.857 282.517 827.115 277.01C829.09 271.503 831.912 266.711 835.58 262.635C839.531 258.558 844.046 255.327 849.408 252.948C855.051 250.566 860.976 249.375 868.03 249.375ZM868.314 265.181C861.824 265.181 857.028 266.995 853.359 270.627C849.691 274.258 847.434 279.406 846.305 286.073H887.783C887.783 283.216 887.22 280.522 886.656 277.993C885.809 275.463 884.681 273.245 882.988 271.342C881.295 269.436 879.318 267.933 877.061 266.831C874.521 265.729 871.7 265.181 868.314 265.181Z" fill="white"/>
<path d="M925.598 342.415V250.806H938.296C940.553 250.806 942.247 251.22 943.094 252.055C943.94 252.887 944.503 254.317 944.785 256.34L946.196 267.413C949.582 261.758 953.252 257.292 957.767 254.02C962.282 250.744 967.077 249.108 972.438 249.108C976.953 249.108 980.904 250.149 983.725 252.233L980.904 268.751C980.621 269.822 980.341 270.582 979.776 271.028C979.212 271.476 978.364 271.698 977.236 271.698C976.389 271.698 975.26 271.489 973.849 271.072C972.156 270.657 970.183 270.449 967.643 270.449C962.846 270.449 959.178 271.712 955.791 274.241C952.405 276.774 949.865 280.477 947.607 285.358V342.415H925.598Z" fill="white"/>
<path d="M1021.82 250.805V342.415H999.81V250.805H1021.82ZM1025.21 224.108C1025.21 226.012 1024.64 227.798 1023.79 229.465C1023.23 231.132 1022.1 232.59 1020.97 233.839C1019.56 235.089 1018.15 236.088 1016.46 236.831C1014.77 237.574 1012.79 237.947 1010.82 237.947C1008.84 237.947 1007.15 237.574 1005.45 236.831C1003.76 236.088 1002.35 235.089 1000.94 233.839C999.811 232.59 998.682 231.132 998.118 229.465C997.271 227.798 996.988 226.012 996.988 224.108C996.988 222.144 997.271 220.299 998.118 218.571C998.682 216.845 999.811 215.357 1000.94 214.107C1002.35 212.858 1003.76 211.859 1005.45 211.116C1007.15 210.373 1008.84 210 1010.82 210C1012.79 210 1014.77 210.373 1016.46 211.116C1018.15 211.859 1019.56 212.858 1020.97 214.107C1022.1 215.357 1023.23 216.845 1023.79 218.571C1024.64 220.299 1025.21 222.144 1025.21 224.108Z" fill="white"/>
<path d="M1046.65 342.415V250.805H1060.2C1063.02 250.805 1064.99 252.144 1065.84 254.824L1067.25 262.056C1069.23 260.15 1071.2 258.425 1073.18 256.877C1075.15 255.327 1077.41 253.989 1079.66 252.859C1081.92 251.726 1084.46 250.864 1087 250.268C1089.54 249.673 1092.36 249.375 1095.47 249.375C1100.55 249.375 1105.06 250.224 1108.73 251.921C1112.68 253.616 1116.07 255.998 1118.61 259.065C1121.15 262.128 1123.12 265.79 1124.53 270.045C1125.66 274.303 1126.51 278.989 1126.51 284.109V342.415H1104.5V284.109C1104.5 278.513 1103.09 274.183 1100.55 271.116C1098.01 268.053 1094.06 266.519 1088.98 266.519C1085.03 266.519 1081.36 267.382 1078.25 269.107C1074.87 270.835 1071.77 273.187 1068.66 276.161V342.415H1046.65Z" fill="white"/>
<path d="M1186.04 249.375C1191.69 249.375 1197.05 250.299 1201.85 252.144C1206.64 253.989 1210.87 256.683 1214.26 260.225C1217.93 263.767 1220.47 268.111 1222.44 273.259C1224.42 278.41 1225.55 284.287 1225.55 290.896C1225.55 292.563 1225.55 293.946 1225.27 295.048C1225.27 296.147 1224.99 297.012 1224.42 297.635C1224.14 298.262 1223.57 298.707 1223.01 298.974C1222.16 299.244 1221.32 299.378 1220.47 299.378H1163.75C1164.6 308.783 1167.14 315.687 1171.37 320.092C1175.88 324.497 1181.81 326.698 1188.86 326.698C1192.53 326.698 1195.64 326.283 1198.18 325.449C1200.72 324.616 1202.97 323.693 1204.95 322.68C1206.92 321.67 1208.62 320.746 1210.03 319.914C1211.44 319.079 1212.85 318.664 1214.26 318.664C1215.11 318.664 1215.95 318.842 1216.52 319.199C1217.36 319.555 1217.93 320.061 1218.21 320.718L1224.7 328.752C1222.16 331.609 1219.62 334.005 1216.52 335.939C1213.41 337.876 1210.31 339.423 1206.93 340.584C1203.82 341.744 1200.44 342.562 1197.05 343.038C1193.38 343.514 1190.28 343.753 1186.89 343.753C1180.68 343.753 1174.76 342.696 1169.11 340.584C1163.75 338.469 1158.95 335.344 1155 331.209C1151.05 327.071 1147.67 321.951 1145.41 315.851C1143.15 309.749 1142.02 302.681 1142.02 294.644C1142.02 288.394 1142.87 282.517 1144.85 277.01C1147.1 271.503 1149.92 266.711 1153.59 262.635C1157.54 258.558 1162.06 255.327 1167.42 252.948C1173.06 250.566 1178.99 249.375 1186.04 249.375ZM1186.33 265.181C1179.84 265.181 1175.04 266.995 1171.37 270.627C1167.7 274.258 1165.44 279.406 1164.31 286.073H1205.8C1205.8 283.216 1205.23 280.522 1204.67 277.993C1203.82 275.463 1202.69 273.245 1201 271.342C1199.3 269.436 1197.33 267.933 1194.79 266.831C1192.53 265.729 1189.71 265.181 1186.33 265.181Z" fill="white"/>
<path d="M1331.08 323.039C1335.6 323.039 1339.83 322.265 1343.5 320.718C1347.17 319.168 1350.27 316.998 1352.81 314.198C1355.35 311.402 1357.33 308.01 1358.45 304.019C1359.87 300.032 1360.43 295.568 1360.43 290.626V213.303H1384.41V290.626C1384.41 298.306 1383.28 305.405 1380.75 311.922C1378.49 318.439 1374.82 324.066 1370.3 328.796C1365.51 333.53 1359.86 337.22 1353.37 339.869C1346.6 342.518 1339.27 343.843 1331.08 343.843C1322.9 343.843 1315.28 342.518 1308.79 339.869C1302.02 337.22 1296.66 333.53 1291.86 328.796C1287.34 324.066 1283.68 318.439 1281.42 311.922C1278.88 305.405 1277.47 298.306 1277.47 290.626V213.303H1301.74V290.537C1301.74 295.479 1302.3 299.943 1303.71 303.93C1304.84 307.918 1306.82 311.327 1309.35 314.154C1311.89 316.981 1315 319.168 1318.67 320.718C1322.33 322.265 1326.29 323.039 1331.08 323.039Z" fill="white"/>
<path d="M1436.15 213.303H1412.07V342.412H1436.15V213.303Z" fill="white"/>
<path d="M476.026 483.787V432.535L469.252 431.762C468.406 431.561 467.844 431.255 467.279 430.838C466.715 430.421 466.431 429.817 466.431 429.024V424.677H476.026V418.845C476.026 415.391 476.308 412.327 477.437 409.648C478.283 406.968 479.694 404.708 481.669 402.861C483.362 401.016 485.619 399.619 488.159 398.664C490.698 397.713 493.52 397.237 496.624 397.237C499.446 397.237 501.704 397.635 504.243 398.428L503.962 403.726C503.962 404.519 503.397 404.995 502.833 405.154C502.268 405.312 501.421 405.393 500.292 405.393H498.319C496.626 405.393 494.932 405.629 493.521 406.105C491.828 406.581 490.698 407.355 489.57 408.426C488.441 409.497 487.596 410.908 487.032 412.653C486.467 414.4 486.183 416.563 486.183 419.142V424.677H503.679V432.357H486.467V483.787H476.026Z" fill="white"/>
<path d="M538.101 422.534C542.334 422.534 546.285 423.269 549.953 424.738C553.622 426.204 556.444 428.289 558.984 430.988C561.523 433.684 563.498 436.948 564.627 440.78C566.038 444.609 566.6 448.883 566.6 453.606C566.6 458.37 566.038 462.655 564.627 466.464C563.498 470.274 561.523 473.527 558.984 476.226C556.444 478.925 553.622 480.998 549.953 482.445C546.285 483.895 542.334 484.619 538.101 484.619C533.587 484.619 529.637 483.895 525.968 482.445C522.582 480.998 519.478 478.925 516.938 476.226C514.399 473.527 512.706 470.274 511.295 466.464C509.884 462.655 509.319 458.37 509.319 453.606C509.319 448.883 509.884 444.609 511.295 440.78C512.706 436.948 514.399 433.684 516.938 430.988C519.478 428.289 522.582 426.204 525.968 424.738C529.637 423.269 533.587 422.534 538.101 422.534ZM538.101 476.346C544.027 476.346 548.542 474.351 551.364 470.363C554.186 466.375 555.878 460.81 555.878 453.667C555.878 446.485 554.186 440.889 551.364 436.879C548.542 432.872 544.027 430.868 538.101 430.868C534.997 430.868 532.458 431.383 530.201 432.415C527.944 433.448 525.968 434.936 524.557 436.879C523.147 438.824 522.017 441.214 521.171 444.053C520.606 446.891 520.325 450.094 520.325 453.667C520.325 457.237 520.606 460.432 521.171 463.25C522.017 466.066 523.147 468.437 524.557 470.363C525.968 472.289 527.944 473.766 530.201 474.799C532.458 475.828 534.997 476.346 538.101 476.346Z" fill="white"/>
<path d="M579.863 483.787V423.486H585.79C586.919 423.486 587.764 423.706 588.328 424.142C588.61 424.579 588.892 425.333 589.174 426.405L589.739 435.807C591.997 431.603 594.537 428.319 597.358 425.957C600.462 423.597 604.13 422.414 608.081 422.414C609.774 422.414 611.186 422.604 612.597 422.982C614.008 423.358 615.136 423.884 616.265 424.557L615.135 432.474C614.853 433.467 614.006 433.963 613.159 433.963C612.595 433.963 611.75 433.776 610.621 433.398C609.493 433.022 607.799 432.833 605.824 432.833C602.155 432.833 599.052 433.904 596.512 436.047C593.973 438.189 591.997 441.306 590.304 445.391V483.787H579.863Z" fill="white"/>
<path d="M694.147 452.952C694.711 453.904 695.275 454.905 695.558 455.957C696.122 457.009 696.404 458.072 696.968 459.144C697.251 458.03 697.816 456.97 698.098 455.957C698.663 454.947 699.226 453.923 699.79 452.894L728.573 400.451C729.137 399.538 729.419 398.982 729.984 398.784C730.548 398.586 731.396 398.486 732.524 398.486H740.99V483.787H730.83V421.107C730.83 420.272 730.83 419.379 730.83 418.427C730.83 417.475 731.113 416.504 731.113 415.511L702.047 468.847C700.918 470.631 699.507 471.524 697.814 471.524H696.122C694.429 471.524 693.019 470.631 691.89 468.847L661.98 415.333C662.262 416.365 662.261 417.375 662.261 418.369C662.261 419.359 662.542 420.272 662.542 421.107V483.787H652.385V398.486H660.85C661.979 398.486 662.543 398.586 663.107 398.784C663.672 398.982 664.238 399.538 664.802 400.451L694.147 452.952Z" fill="white"/>
<path d="M804.197 483.787H799.683C798.554 483.787 797.707 483.628 797.142 483.311C796.578 482.991 796.014 482.317 795.731 481.285L794.604 475.689C793.193 477.119 791.499 478.399 790.088 479.529C788.395 480.662 786.983 481.613 785.29 482.387C783.597 483.161 781.906 483.745 779.931 484.143C777.955 484.541 775.98 484.738 773.722 484.738C771.465 484.738 769.208 484.41 767.233 483.756C764.975 483.102 763.281 482.12 761.87 480.809C760.177 479.501 759.049 477.843 758.202 475.839C757.356 473.836 756.792 471.465 756.792 468.727C756.792 466.345 757.639 464.055 758.767 461.851C760.178 459.65 762.153 457.693 765.257 455.988C768.079 454.282 771.747 452.882 776.544 451.791C781.341 450.7 786.985 450.074 794.039 449.916V445.213C794.039 440.53 792.909 436.99 790.934 434.589C788.959 432.187 785.857 430.988 781.906 430.988C779.367 430.988 777.389 431.313 775.414 431.97C773.721 432.624 772.311 433.359 770.9 434.171C769.772 434.984 768.642 435.718 767.514 436.375C766.667 437.029 765.821 437.357 764.692 437.357C764.128 437.357 763.564 437.168 763 436.79C762.436 436.414 761.871 435.947 761.589 435.393L759.894 431.998C762.998 428.784 766.669 426.382 770.619 424.796C774.288 423.21 778.52 422.414 783.317 422.414C786.703 422.414 789.805 422.971 792.345 424.081C794.884 425.194 797.144 426.741 798.837 428.725C800.812 430.71 801.941 433.111 803.07 435.927C803.916 438.746 804.197 441.84 804.197 445.213V483.787ZM776.825 477.298C778.8 477.298 780.495 477.108 781.906 476.733C783.599 476.354 785.009 475.82 786.42 475.124C787.549 474.431 788.961 473.588 790.372 472.595C791.5 471.604 792.629 470.472 794.039 469.203V456.641C788.96 456.8 785.01 457.187 781.341 457.802C777.955 458.417 775.415 459.221 773.157 460.215C770.9 461.205 769.488 462.377 768.36 463.726C767.513 465.076 766.949 466.584 766.949 468.251C766.949 469.837 767.233 471.206 767.798 472.358C768.362 473.507 768.924 474.451 769.771 475.185C770.617 475.917 771.747 476.454 772.876 476.791C774.287 477.128 775.414 477.298 776.825 477.298Z" fill="white"/>
<path d="M854.987 433.428C854.422 434.299 853.576 434.736 852.73 434.736C852.165 434.736 851.318 434.519 850.754 434.082C849.907 433.645 849.061 433.158 847.932 432.624C846.804 432.087 845.394 431.592 843.983 431.135C842.573 430.679 840.596 430.451 838.621 430.451C836.928 430.451 835.234 430.679 833.823 431.135C832.413 431.592 831.284 432.218 830.156 433.011C829.027 433.804 828.463 434.728 827.899 435.78C827.334 436.832 827.053 437.972 827.053 439.202C827.053 440.75 827.335 442.038 828.464 443.07C829.31 444.103 830.437 444.996 831.848 445.75C833.258 446.504 834.954 447.169 836.929 447.742C838.622 448.318 840.597 448.933 842.573 449.587C844.548 450.244 846.522 450.968 848.497 451.761C850.19 452.554 851.884 453.547 853.295 454.738C854.706 455.929 856.116 457.387 856.962 459.113C857.809 460.838 858.373 462.914 858.373 465.332C858.373 468.112 857.81 470.68 856.681 473.043C855.835 475.403 854.424 477.448 852.449 479.173C850.473 480.898 847.932 482.259 845.11 483.25C842.289 484.243 839.186 484.739 835.518 484.739C831.285 484.739 827.333 484.054 823.947 482.685C820.561 481.316 817.739 479.56 815.482 477.417L817.739 473.368C818.303 472.854 818.586 472.456 818.869 472.177C819.433 471.902 819.998 471.763 820.844 471.763C821.409 471.763 822.255 472.041 823.101 472.595C823.666 473.151 824.794 473.766 825.923 474.44C827.052 475.116 828.464 475.731 829.875 476.285C831.568 476.841 833.541 477.119 836.08 477.119C838.055 477.119 839.75 476.852 841.443 476.315C842.854 475.781 844.266 475.055 845.394 474.142C846.241 473.229 847.087 472.177 847.651 470.989C847.933 469.798 848.216 468.527 848.216 467.18C848.216 465.513 847.933 464.133 847.086 463.042C845.958 461.951 844.829 461.019 843.419 460.242C842.008 459.469 840.315 458.795 838.34 458.219C836.647 457.643 834.672 457.04 832.696 456.405C830.721 455.771 828.744 455.044 826.769 454.232C825.076 453.419 823.382 452.395 821.971 451.165C820.278 449.935 819.15 448.419 818.304 446.613C817.457 444.807 816.893 442.614 816.893 440.034C816.893 437.733 817.457 435.521 818.304 433.398C819.432 431.274 820.843 429.41 822.536 427.802C824.512 426.196 826.488 424.916 829.31 423.964C831.849 423.01 834.954 422.534 838.34 422.534C842.29 422.534 845.958 423.16 849.062 424.41C852.166 425.659 854.986 427.376 857.243 429.558L854.987 433.428Z" fill="white"/>
<path d="M890.258 484.738C885.461 484.738 881.794 483.408 879.255 480.751C876.715 478.09 875.303 474.262 875.303 469.261V432.357H868.249C867.402 432.357 867.121 432.168 866.557 431.789C865.992 431.414 865.992 430.829 865.992 430.033V425.809L875.868 424.557L878.125 405.927C878.407 405.331 878.689 404.844 878.971 404.469C879.535 404.09 880.101 403.904 880.666 403.904H886.025V424.677H903.24V432.357H886.025V468.549C886.025 471.087 886.591 472.973 887.72 474.203C889.131 475.433 890.54 476.048 892.515 476.048C893.644 476.048 894.774 475.898 895.62 475.6C896.185 475.302 897.032 474.977 897.596 474.618C898.161 474.262 898.725 473.933 899.007 473.636C899.571 473.341 899.852 473.19 900.134 473.19C900.699 473.19 901.265 473.527 901.829 474.203L904.932 479.262C902.956 480.968 900.698 482.306 898.158 483.28C895.619 484.252 893.08 484.738 890.258 484.738Z" fill="white"/>
<path d="M940.769 422.534C945.002 422.534 948.953 423.269 952.621 424.738C956.29 426.204 959.109 428.289 961.649 430.988C964.188 433.684 966.164 436.948 967.292 440.78C968.703 444.609 969.268 448.883 969.268 453.606C969.268 458.37 968.703 462.655 967.292 466.464C966.164 470.274 964.188 473.527 961.649 476.226C959.109 478.925 956.29 480.998 952.621 482.445C948.953 483.895 945.002 484.619 940.769 484.619C936.254 484.619 932.303 483.895 928.917 482.445C925.249 480.998 922.146 478.925 919.606 476.226C917.349 473.527 915.373 470.274 913.963 466.464C912.552 462.655 911.987 458.37 911.987 453.606C911.987 448.883 912.552 444.609 913.963 440.78C915.373 436.948 917.349 433.684 919.606 430.988C922.146 428.289 925.249 426.204 928.917 424.738C932.303 423.269 936.254 422.534 940.769 422.534ZM940.769 476.346C946.695 476.346 951.21 474.351 954.032 470.363C956.854 466.375 958.546 460.81 958.546 453.667C958.546 446.485 956.854 440.889 954.032 436.879C951.21 432.872 946.695 430.868 940.769 430.868C937.665 430.868 935.126 431.383 932.869 432.415C930.612 433.448 928.918 434.936 927.225 436.879C925.815 438.824 924.685 441.214 923.839 444.053C923.274 446.891 922.993 450.094 922.993 453.667C922.993 457.237 923.274 460.432 923.839 463.25C924.685 466.066 925.815 468.437 927.225 470.363C928.918 472.289 930.612 473.766 932.869 474.799C935.126 475.828 937.665 476.346 940.769 476.346Z" fill="white"/>
<path d="M1024.86 483.787C1023.45 483.787 1022.32 483.052 1022.03 481.583L1021.19 474.262C1018.37 477.398 1015.54 479.908 1012.16 481.792C1008.77 483.676 1005.1 484.619 1000.87 484.619C997.485 484.619 994.382 483.954 991.56 482.626C988.738 481.296 986.197 479.34 984.222 476.763C982.246 474.184 980.837 470.967 979.708 467.118C978.579 463.27 978.016 458.846 978.016 453.845C978.016 449.401 978.579 445.263 979.708 441.434C981.119 437.605 982.813 434.28 985.07 431.464C987.328 428.645 989.866 426.433 993.252 424.827C996.356 423.219 1000.02 422.414 1003.97 422.414C1007.92 422.414 1011.03 423.041 1013.57 424.29C1016.11 425.539 1018.65 427.295 1020.62 429.558V396.104H1031.06V483.787H1024.86ZM1004.26 476.048C1007.93 476.048 1010.75 475.255 1013.29 473.666C1016.11 472.08 1018.37 469.837 1020.62 466.94V437.772C1018.65 435.154 1016.39 433.32 1014.13 432.268C1011.88 431.216 1009.34 430.69 1006.51 430.69C1000.87 430.69 996.64 432.694 993.536 436.701C990.432 440.711 989.019 446.424 989.019 453.845C989.019 457.774 989.303 461.136 990.149 463.935C990.713 466.732 991.56 469.033 992.971 470.839C994.382 472.645 995.793 473.964 997.768 474.799C999.744 475.631 1002 476.048 1004.26 476.048Z" fill="white"/>
<path d="M1073.39 422.534C1077.63 422.534 1081.58 423.269 1085.25 424.738C1088.91 426.204 1091.73 428.289 1094.27 430.988C1096.81 433.684 1098.79 436.948 1099.92 440.78C1101.33 444.609 1101.89 448.883 1101.89 453.606C1101.89 458.37 1101.33 462.655 1099.92 466.464C1098.79 470.274 1096.81 473.527 1094.27 476.226C1091.73 478.925 1088.91 480.998 1085.25 482.445C1081.58 483.895 1077.63 484.619 1073.39 484.619C1068.88 484.619 1064.93 483.895 1061.26 482.445C1057.87 480.998 1054.77 478.925 1052.23 476.226C1049.97 473.527 1048 470.274 1046.59 466.464C1045.18 462.655 1044.61 458.37 1044.61 453.606C1044.61 448.883 1045.18 444.609 1046.59 440.78C1048 436.948 1049.97 433.684 1052.23 430.988C1054.77 428.289 1057.87 426.204 1061.26 424.738C1064.93 423.269 1068.88 422.534 1073.39 422.534ZM1073.39 476.346C1079.32 476.346 1083.84 474.351 1086.66 470.363C1089.48 466.375 1091.17 460.81 1091.17 453.667C1091.17 446.485 1089.48 440.889 1086.66 436.879C1083.84 432.872 1079.32 430.868 1073.39 430.868C1070.29 430.868 1067.75 431.383 1065.49 432.415C1063.24 433.448 1061.26 434.936 1059.85 436.879C1058.44 438.824 1057.31 441.214 1056.46 444.053C1055.9 446.891 1055.62 450.094 1055.62 453.667C1055.62 457.237 1055.9 460.432 1056.46 463.25C1057.31 466.066 1058.44 468.437 1059.85 470.363C1061.26 472.289 1063.24 473.766 1065.49 474.799C1067.75 475.828 1070.29 476.346 1073.39 476.346Z" fill="white"/>
<path d="M1115.16 483.787V423.486H1121.36C1122.77 423.486 1123.9 424.22 1124.19 425.69L1125.03 432.237C1127.57 429.341 1130.67 427 1133.78 425.214C1137.16 423.427 1140.83 422.534 1145.07 422.534C1148.45 422.534 1151.27 423.08 1153.81 424.17C1156.35 425.264 1158.33 426.811 1160.02 428.814C1161.72 430.818 1163.13 433.228 1163.97 436.047C1164.82 438.863 1165.1 441.98 1165.1 445.391V483.787H1154.66V445.391C1154.66 440.827 1153.53 437.288 1151.56 434.767C1149.3 432.246 1146.19 430.988 1141.96 430.988C1138.86 430.988 1135.76 431.742 1133.22 433.25C1130.39 434.756 1127.85 436.801 1125.6 439.381V483.787H1115.16Z" fill="white"/>
<path d="M365.473 429.703C360.11 457.32 317.443 487.545 268.439 493.402C242.886 496.454 217.727 499.26 190.899 498.028C147.024 496.016 123.167 477.878 115.664 488.447C111.452 494.379 111.557 500.791 112.528 506.083C120.508 549.569 148.069 556.848 181.861 546.673C201.089 540.885 251.852 502.491 251.852 547.266C251.852 576.617 235.252 583.662 190.899 586.123C166.441 587.469 136.073 585.507 100.703 576.136C23.991 555.81 10.7982 473.954 8.77961 390.898C8.16433 366.238 8.54361 342.985 8.54361 323.538C8.54361 238.608 64.1318 213.714 64.1318 213.714C92.1609 200.829 140.256 195.41 190.256 195H191.485C241.485 195.41 289.612 200.829 317.639 213.714C317.639 213.714 373.225 238.608 373.225 323.538C373.225 323.538 373.922 386.199 365.473 429.703Z" fill="#FD8935"/>
<path fill-rule="evenodd" clip-rule="evenodd" d="M373.745 431.313C371.297 443.928 362.348 457.238 348.527 468.835C329.298 484.973 300.59 498.055 269.438 501.78C243.43 504.887 217.82 507.71 190.514 506.457C163.456 505.214 143.792 498.087 130.736 494.866C128.576 494.332 126.638 493.919 124.91 493.717C124.05 493.615 122.807 493.66 122.295 493.685C119.885 497.349 120.222 501.308 120.818 504.558C124.175 522.857 131.052 533.899 141.245 538.936C151.677 544.089 164.884 542.975 179.434 538.594C184.904 536.947 193.034 532.443 201.78 528.195C211.895 523.283 222.738 518.733 231.767 517.668C240.035 516.693 247.09 518.467 252.217 523.331C256.831 527.708 260.281 535.12 260.281 547.266C260.281 557.983 258.22 566.199 254.216 572.609C249.397 580.329 241.713 585.735 230.155 589.18C220.466 592.069 207.71 593.641 191.365 594.548H191.361C166.195 595.932 134.942 593.936 98.5457 584.292C57.307 573.366 33.016 546.032 18.8898 510.133C5.42103 475.912 1.38798 433.671 0.353383 391.109C-0.264007 366.371 0.115277 343.047 0.115277 323.538C0.115277 233.32 59.3573 206.602 60.6489 206.03C89.4576 192.8 138.826 186.983 190.187 186.563C190.21 186.563 190.233 186.563 190.256 186.563H191.485C191.508 186.563 191.531 186.563 191.554 186.563C242.903 186.983 292.294 192.798 321.086 206.015C321.712 206.289 381.637 232.78 381.653 323.472C381.668 325.014 382.224 387.656 373.745 431.313ZM357.198 428.094C365.513 385.288 364.796 323.632 364.796 323.632C364.796 323.601 364.796 323.569 364.796 323.538C364.796 244.9 314.196 221.415 314.196 221.415C314.17 221.405 314.145 221.392 314.12 221.382C286.875 208.854 240.056 203.838 191.449 203.438H190.292C141.685 203.838 94.8982 208.854 67.6488 221.382C67.6235 221.392 67.5982 221.405 67.573 221.415C67.573 221.415 16.9723 244.9 16.9723 323.538C16.9723 342.924 16.593 366.105 17.2062 390.687V390.694C18.1902 431.182 21.7618 471.398 34.5732 503.949C46.725 534.825 67.3875 558.58 102.859 567.979C137.203 577.078 166.686 579.004 190.433 577.699C205.135 576.882 216.627 575.608 225.342 573.008C232.193 570.966 237.064 568.243 239.922 563.668C242.499 559.54 243.424 554.163 243.424 547.266C243.424 540.754 242.808 536.753 239.953 535.078C237.947 533.899 235.336 534.133 232.462 534.608C227.995 535.35 223.079 537.126 218.108 539.248C205.274 544.724 192.178 552.378 184.289 554.754C165.047 560.548 147.581 560.881 133.785 554.066C119.75 547.133 108.86 532.802 104.237 507.608C102.91 500.376 103.038 491.664 108.793 483.558C112.737 478.004 118.894 475.752 128.168 477.129C140.36 478.939 160.974 488.209 191.285 489.599C217.634 490.81 242.343 488.021 267.441 485.024C295.093 481.719 320.627 470.229 337.699 455.903C348.081 447.189 355.359 437.571 357.198 428.094Z" fill="black"/>
<path fill-rule="evenodd" clip-rule="evenodd" d="M190.836 8.43726C215.968 8.43726 247.398 69.6324 247.398 100.882C247.398 126.059 230.948 147.42 208.231 154.771C204.063 156.12 206.033 195.006 204.914 194.999C203.296 194.991 178.817 195.008 177.365 194.999C175.646 194.993 178.925 156.544 173.444 154.771C150.725 147.42 134.275 126.059 134.275 100.882C134.275 69.6324 165.705 8.43726 190.836 8.43726Z" fill="#85D023"/>
<path fill-rule="evenodd" clip-rule="evenodd" d="M214.754 161.385C214.482 163.687 214.088 167.449 213.979 170.616C213.648 180.177 213.859 191.156 213.566 194.624C212.908 202.392 206.111 203.443 204.87 203.436C203.251 203.428 178.777 203.445 177.325 203.436C175.25 203.428 173.17 202.77 171.328 200.941C170.593 200.209 169.617 199.007 169.038 197.039C168.76 196.096 168.458 194.029 168.397 191.169C168.281 185.872 168.587 176.248 168.201 168.293C168.094 166.064 167.723 163.338 167.457 161.596C143.124 152.191 125.846 128.541 125.846 100.882C125.846 77.4601 142.134 38.2417 161.258 16.8702C170.835 6.16548 181.402 0 190.836 0C200.27 0 210.837 6.16548 220.414 16.8702C239.538 38.2417 255.826 77.4601 255.826 100.882C255.826 128.337 238.803 151.841 214.754 161.385ZM185.417 186.564C188.986 186.564 193.181 186.562 196.774 186.56C196.827 177.988 197.092 163.429 198.23 157.188C198.795 154.096 199.764 151.843 200.645 150.55C202.103 148.411 203.917 147.299 205.637 146.742C224.972 140.486 238.969 122.308 238.969 100.882C238.969 83.4273 228.187 56.0295 214.708 36.8284C210.39 30.6798 205.797 25.3792 201.119 21.6521C197.608 18.853 194.212 16.8745 190.836 16.8745C187.46 16.8745 184.064 18.853 180.553 21.6521C175.875 25.3792 171.284 30.6798 166.966 36.8284C153.485 56.0295 142.703 83.4273 142.703 100.882C142.703 122.308 156.703 140.486 176.036 146.742C178.787 147.635 182.469 150.733 183.861 157.032C185.271 163.414 185.444 178.102 185.417 186.564Z" fill="black"/>
<path d="M270.606 269.305C271.847 276.39 278.592 281.124 285.672 279.879C292.751 278.634 297.483 271.882 296.242 264.798C295 257.713 288.255 252.979 281.176 254.224C274.097 255.469 269.364 262.221 270.606 269.305Z" fill="black"/>
<path d="M260.545 301.526C261.786 308.61 268.531 313.345 275.61 312.1C282.689 310.855 287.422 304.103 286.181 297.018C284.939 289.934 278.194 285.2 271.115 286.445C264.036 287.689 259.303 294.441 260.545 301.526Z" fill="black"/>
<path d="M293.628 293.597C294.869 300.681 301.614 305.415 308.693 304.171C315.772 302.926 320.505 296.174 319.264 289.089C318.022 282.005 311.277 277.271 304.198 278.516C297.119 279.76 292.386 286.512 293.628 293.597Z" fill="black"/>
<path fill-rule="evenodd" clip-rule="evenodd" d="M82.5546 234.573C89.4222 231.902 97.1627 235.317 99.8318 242.192C102.501 249.068 99.0989 256.813 92.2243 259.493C85.8437 261.974 80.6139 266.851 76.8213 275.291C73.8016 282.017 65.8959 285.019 59.1752 281.995C52.4544 278.971 49.4514 271.053 52.4711 264.326C59.7364 248.148 70.3174 239.335 82.5546 234.573Z" fill="#FFE2CC"/>
</svg>
