<svg width="970" height="915" viewBox="0 0 970 915" fill="none" xmlns="http://www.w3.org/2000/svg">
<path d="M642.52 371.684C637.877 395.572 600.932 421.715 558.502 426.782C536.376 429.422 514.591 431.849 491.362 430.783C453.372 429.043 432.715 413.354 426.218 422.496C422.57 427.627 422.662 433.173 423.503 437.751C430.412 475.365 454.277 481.661 483.536 472.86C500.185 467.853 544.139 434.644 544.139 473.373C544.139 498.761 529.766 504.854 491.362 506.984C470.185 508.148 443.89 506.451 413.264 498.345C346.841 480.764 335.417 409.96 333.67 338.118C333.137 316.788 333.465 296.675 333.465 279.853C333.465 206.391 381.598 184.858 381.598 184.858C405.867 173.712 447.511 169.025 490.805 168.671H491.869C535.162 169.025 576.834 173.712 601.102 184.858C601.102 184.858 649.232 206.391 649.232 279.853C649.232 279.853 649.836 334.053 642.52 371.684Z" fill="#FD8935"/>
<path fill-rule="evenodd" clip-rule="evenodd" d="M649.683 373.076C647.563 383.988 639.814 395.501 627.848 405.532C611.197 419.491 586.34 430.807 559.367 434.029C536.847 436.716 514.672 439.158 491.028 438.074C467.599 436.999 450.573 430.834 439.268 428.048C437.398 427.587 435.72 427.229 434.224 427.054C433.479 426.966 432.403 427.005 431.96 427.026C429.872 430.196 430.164 433.62 430.681 436.432C433.587 452.259 439.542 461.811 448.367 466.168C457.4 470.625 468.836 469.662 481.435 465.872C486.171 464.447 493.21 460.552 500.784 456.877C509.541 452.628 518.93 448.692 526.748 447.771C533.907 446.928 540.016 448.463 544.455 452.67C548.451 456.456 551.437 462.867 551.437 473.373C551.437 482.643 549.653 489.749 546.186 495.294C542.014 501.972 535.36 506.648 525.352 509.627C516.963 512.127 505.918 513.486 491.765 514.271H491.761C469.971 515.468 442.91 513.742 411.396 505.4C375.688 495.949 354.655 472.305 342.424 441.254C330.762 411.653 327.269 375.116 326.374 338.301C325.839 316.903 326.167 296.728 326.167 279.853C326.167 201.817 377.463 178.706 378.582 178.211C403.526 166.768 446.273 161.736 490.745 161.373C490.765 161.373 490.785 161.373 490.805 161.373H491.869C491.889 161.373 491.909 161.373 491.929 161.373C536.391 161.736 579.157 166.766 604.087 178.199C604.629 178.436 656.516 201.35 656.531 279.796C656.543 281.13 657.025 335.314 649.683 373.076ZM635.355 370.292C642.555 333.265 641.935 279.935 641.935 279.935C641.935 279.908 641.935 279.88 641.935 279.853C641.935 211.833 598.121 191.519 598.121 191.519C598.099 191.51 598.077 191.499 598.055 191.49C574.464 180.654 533.926 176.316 491.838 175.969H490.836C448.749 176.316 408.237 180.654 384.643 191.49C384.621 191.499 384.599 191.51 384.577 191.519C384.577 191.519 340.763 211.833 340.763 279.853C340.763 296.622 340.435 316.673 340.966 337.936V337.941C341.818 372.963 344.911 407.749 356.004 435.905C366.525 462.612 384.417 483.159 415.13 491.289C444.868 499.16 470.396 500.826 490.959 499.697C503.688 498.99 513.639 497.888 521.185 495.639C527.117 493.873 531.335 491.517 533.809 487.56C536.04 483.989 536.841 479.339 536.841 473.373C536.841 467.74 536.308 464.279 533.836 462.831C532.099 461.811 529.839 462.013 527.35 462.424C523.482 463.066 519.226 464.602 514.922 466.438C503.809 471.174 492.469 477.795 485.638 479.85C468.977 484.861 453.854 485.15 441.909 479.255C429.756 473.258 420.326 460.862 416.324 439.07C415.174 432.814 415.285 425.279 420.268 418.267C423.684 413.463 429.015 411.515 437.044 412.706C447.601 414.271 465.45 422.29 491.696 423.492C514.511 424.54 535.905 422.128 557.637 419.535C581.58 416.676 603.689 406.738 618.471 394.346C627.461 386.809 633.763 378.489 635.355 370.292Z" fill="#352B21"/>
<path fill-rule="evenodd" clip-rule="evenodd" d="M491.307 7.29797C513.068 7.29797 540.283 60.2304 540.283 87.2605C540.283 109.038 526.039 127.515 506.369 133.873C502.76 135.041 504.466 168.675 503.497 168.67C502.096 168.663 480.9 168.677 479.643 168.67C478.155 168.664 480.993 135.407 476.248 133.873C456.576 127.515 442.332 109.038 442.332 87.2605C442.332 60.2304 469.546 7.29797 491.307 7.29797Z" fill="#85D023"/>
<path fill-rule="evenodd" clip-rule="evenodd" d="M512.017 139.595C511.782 141.585 511.441 144.84 511.346 147.579C511.059 155.849 511.242 165.346 510.988 168.345C510.419 175.065 504.533 175.973 503.458 175.968C502.057 175.961 480.866 175.975 479.609 175.968C477.811 175.961 476.011 175.391 474.416 173.81C473.779 173.176 472.935 172.137 472.433 170.434C472.192 169.619 471.931 167.831 471.878 165.357C471.778 160.775 472.042 152.45 471.708 145.57C471.615 143.641 471.294 141.284 471.064 139.777C449.995 131.642 435.034 111.185 435.034 87.2605C435.034 67.0012 449.137 33.0782 465.697 14.5923C473.989 5.33297 483.139 -3.05176e-05 491.307 -3.05176e-05C499.476 -3.05176e-05 508.625 5.33297 516.918 14.5923C533.477 33.0782 547.58 67.0012 547.58 87.2605C547.58 111.008 532.84 131.339 512.017 139.595ZM486.615 161.374C489.705 161.374 493.338 161.372 496.449 161.37C496.494 153.955 496.724 141.363 497.709 135.964C498.198 133.289 499.038 131.341 499.8 130.222C501.063 128.372 502.634 127.411 504.123 126.929C520.864 121.517 532.984 105.794 532.984 87.2605C532.984 72.1627 523.648 48.4642 511.977 31.8558C508.239 26.5373 504.261 21.9524 500.211 18.7285C497.171 16.3074 494.23 14.596 491.307 14.596C488.384 14.596 485.443 16.3074 482.404 18.7285C478.353 21.9524 474.378 26.5373 470.639 31.8558C458.966 48.4642 449.63 72.1627 449.63 87.2605C449.63 105.794 461.752 121.517 478.492 126.929C480.875 127.701 484.062 130.381 485.268 135.829C486.489 141.35 486.638 154.054 486.615 161.374Z" fill="#352B21"/>
<path d="M560.379 232.941C561.455 239.07 567.295 243.167 573.424 242.091C579.553 241.015 583.649 235.174 582.573 229.046C581.498 222.917 575.657 218.821 569.528 219.897C563.4 220.972 559.303 226.813 560.379 232.941Z" fill="#352B21"/>
<path d="M551.667 260.812C552.743 266.94 558.584 271.037 564.712 269.961C570.841 268.885 574.937 263.045 573.862 256.916C572.786 250.787 566.946 246.691 560.817 247.767C554.688 248.842 550.592 254.683 551.667 260.812Z" fill="#352B21"/>
<path d="M580.313 253.953C581.389 260.082 587.229 264.178 593.358 263.102C599.487 262.027 603.583 256.186 602.507 250.057C601.431 243.929 595.591 239.832 589.462 240.908C583.334 241.984 579.237 247.824 580.313 253.953Z" fill="#352B21"/>
<path fill-rule="evenodd" clip-rule="evenodd" d="M397.549 202.901C403.496 200.59 410.198 203.544 412.509 209.491C414.82 215.438 411.874 222.138 405.922 224.456C400.397 226.602 395.869 230.82 392.585 238.121C389.97 243.939 383.125 246.535 377.305 243.919C371.486 241.303 368.886 234.455 371.501 228.637C377.791 214.643 386.953 207.02 397.549 202.901Z" fill="#FFE2CC"/>
<path d="M100.018 648.633V667.987H61.7851V775.269H38.2356V667.987H0V648.633H100.018Z" fill="black"/>
<path d="M162.63 775.269H152.933C150.994 775.269 149.331 774.961 148.223 774.349C147.115 773.735 146.006 772.496 145.452 770.627L143.515 764.234C141.299 766.276 139.081 768.072 136.865 769.62C134.648 771.167 132.431 772.466 130.214 773.517C127.721 774.568 125.23 775.357 122.736 775.881C119.966 776.408 117.194 776.67 113.87 776.67C109.991 776.67 106.667 776.159 103.342 775.138C100.295 774.115 97.5242 772.584 95.0307 770.539C92.8143 768.495 91.1509 765.957 89.7656 762.919C88.3803 759.884 87.8257 756.352 87.8257 752.324C87.8257 748.936 88.6568 745.596 90.5962 742.296C92.2585 738.996 95.3067 736.018 99.4625 733.363C103.618 730.707 109.16 728.502 115.81 726.752C122.736 725 131.324 724.007 141.575 723.775V718.518C141.575 712.505 140.189 708.053 137.695 705.163C135.202 702.273 131.6 700.829 126.613 700.829C123.289 700.829 120.242 701.238 118.026 702.054C115.532 702.873 113.592 703.79 111.93 704.814C110.268 705.834 108.606 706.754 106.943 707.573C105.558 708.389 103.895 708.799 102.233 708.799C100.848 708.799 99.463 708.419 98.6319 707.66C97.5236 706.902 96.6925 705.965 95.8613 704.857L91.9815 697.938C102.232 688.481 114.7 683.751 129.384 683.751C134.648 683.751 139.359 684.611 143.515 686.336C147.671 688.058 150.995 690.452 154.043 693.517C156.813 696.582 159.029 700.245 160.414 704.508C162.077 708.768 162.63 713.438 162.63 718.518V775.269ZM120.517 761.781C123.011 761.781 124.952 761.576 126.892 761.169C128.554 760.76 130.492 760.146 132.154 759.33C133.817 758.511 135.479 757.504 136.865 756.308C138.527 755.11 139.913 753.697 141.575 752.062V736.911C135.203 737.203 129.938 737.741 125.783 738.529C121.627 739.318 118.025 740.325 115.531 741.551C113.038 742.776 111.098 744.209 109.99 745.841C109.159 747.476 108.605 749.258 108.605 751.185C108.605 754.979 109.713 757.695 111.93 759.33C114.146 760.965 116.916 761.781 120.517 761.781Z" fill="black"/>
<path d="M183.965 775.269V685.416H197.263C200.033 685.416 201.973 686.729 202.804 689.357L204.189 696.451C206.129 694.581 207.793 692.889 210.009 691.371C211.948 689.851 214.164 688.538 216.381 687.43C218.597 686.319 221.089 685.473 223.583 684.889C226.076 684.305 228.847 684.013 231.895 684.013C236.882 684.013 241.315 684.846 244.917 686.51C248.795 688.173 251.843 690.509 254.614 693.517C257.107 696.522 259.045 700.114 260.431 704.287C261.539 708.463 262.37 713.059 262.37 718.081V775.269H240.761V718.081C240.761 712.592 239.374 708.345 236.881 705.338C234.388 702.333 230.51 700.829 225.523 700.829C221.644 700.829 218.043 701.675 214.995 703.367C211.671 705.062 208.622 707.368 205.574 710.286V775.269H183.965Z" fill="black"/>
<path d="M314.734 683.838C318.613 683.838 322.213 684.231 325.537 685.02C328.862 685.809 331.912 686.961 334.682 688.481H360.724V696.538C360.724 697.881 360.171 698.932 359.617 699.69C358.786 700.449 357.676 700.973 356.013 701.265L347.98 702.756C348.535 704.273 349.089 705.878 349.366 707.573C349.643 709.265 349.642 711.045 349.642 712.914C349.642 717.352 348.812 721.364 347.15 724.956C345.21 728.545 342.716 731.597 339.669 734.108C336.621 736.619 333.02 738.559 328.587 739.932C324.431 741.302 319.721 741.99 314.734 741.99C311.132 741.99 308.083 741.668 304.758 741.027C301.988 742.719 300.603 744.616 300.603 746.717C300.603 748.527 301.435 749.856 303.097 750.702C304.759 751.548 306.975 752.149 309.469 752.498C312.239 752.847 315.288 753.068 318.89 753.156C322.214 753.243 325.816 753.431 329.417 753.724C333.019 754.016 336.62 754.526 339.945 755.257C343.546 755.986 346.595 757.141 349.366 758.716C351.859 760.293 354.075 762.438 355.737 765.154C357.4 767.867 358.232 771.355 358.232 775.619C358.232 779.59 357.401 783.441 355.461 787.177C353.522 790.914 350.75 794.244 346.871 797.161C343.269 800.082 338.561 802.432 333.297 804.211C328.033 805.994 321.659 806.883 315.01 806.883C308.084 806.883 302.265 806.225 297.001 804.913C292.014 803.6 287.859 801.848 284.534 799.659C281.209 797.47 278.994 794.942 277.332 792.082C275.669 789.222 274.837 786.244 274.837 783.149C274.837 778.946 275.946 775.414 278.717 772.553C281.21 769.693 284.812 767.417 289.244 765.722C287.028 764.496 285.365 762.861 283.979 760.817C282.594 758.776 282.042 756.117 282.042 752.847C282.042 751.505 282.317 750.118 282.594 748.688C283.148 747.258 283.982 745.841 284.813 744.441C285.921 743.041 287.029 741.712 288.414 740.456C289.799 739.201 291.737 738.076 293.676 737.085C288.966 734.632 285.366 731.362 282.873 727.276C280.379 723.19 278.993 718.403 278.993 712.914C278.993 708.476 279.824 704.461 281.763 700.872C283.426 697.281 285.92 694.215 289.244 691.677C292.292 689.136 296.171 687.195 300.327 685.853C304.759 684.51 309.47 683.838 314.734 683.838ZM338.284 779.298C338.284 777.545 337.729 776.115 336.898 775.004C335.79 773.896 334.403 773.034 332.464 772.422C330.801 771.808 328.586 771.355 326.092 771.063C323.599 770.774 321.106 770.553 318.335 770.408C315.842 770.261 312.794 770.116 310.024 769.969C307.253 769.824 304.482 769.576 301.712 769.226C299.218 770.569 297.28 772.16 295.895 773.997C294.233 775.837 293.4 777.955 293.4 780.348C293.4 781.923 293.954 783.397 294.786 784.77C295.617 786.143 296.724 787.325 298.387 788.318C300.326 789.309 302.543 790.084 305.313 790.638C307.807 791.192 311.41 791.471 315.289 791.471C319.167 791.471 322.767 791.162 325.537 790.551C328.585 789.937 331.079 789.091 333.018 788.01C334.681 786.932 336.066 785.646 337.174 784.156C338.005 782.668 338.284 781.047 338.284 779.298ZM314.734 728.152C317.227 728.152 319.721 727.787 321.66 727.058C323.6 726.326 325.261 725.319 326.647 724.036C328.032 722.751 328.862 721.203 329.693 719.394C330.247 717.584 330.527 715.6 330.527 713.438C330.527 709.003 329.14 705.485 326.647 702.887C323.876 700.288 319.998 698.989 314.734 698.989C309.193 698.989 305.315 700.288 302.821 702.887C300.051 705.485 298.665 709.003 298.665 713.438C298.665 715.54 298.941 717.497 299.772 719.306C300.326 721.116 301.436 722.68 302.821 723.993C303.929 725.305 305.591 726.326 307.808 727.058C309.747 727.787 311.963 728.152 314.734 728.152Z" fill="black"/>
<path d="M411.423 684.013C416.964 684.013 422.23 684.919 426.94 686.729C431.65 688.538 435.804 691.18 439.129 694.655C442.73 698.129 445.501 702.39 447.44 707.439C449.38 712.491 450.211 718.256 450.211 724.738C450.211 726.373 450.212 727.729 449.935 728.81C449.935 729.888 449.658 730.737 449.104 731.348C448.827 731.962 448.273 732.399 447.719 732.661C446.888 732.926 446.333 733.057 445.224 733.057H389.814C390.368 742.282 392.863 749.054 397.019 753.374C401.452 757.695 407.268 759.854 414.194 759.854C417.796 759.854 420.845 759.447 423.339 758.628C425.832 757.812 428.047 756.906 429.987 755.913C431.926 754.922 433.588 754.016 434.973 753.2C436.358 752.381 437.743 751.974 439.129 751.974C439.96 751.974 440.793 752.149 441.347 752.498C442.178 752.848 442.732 753.344 443.009 753.988L449.38 761.868C446.887 764.671 444.395 767.021 441.347 768.918C438.3 770.818 435.251 772.335 431.926 773.473C428.879 774.611 425.554 775.414 422.23 775.881C418.905 776.347 415.581 776.582 412.257 776.582C406.162 776.582 400.343 775.545 395.079 773.473C389.538 771.399 384.826 768.334 380.947 764.278C377.069 760.219 373.746 755.198 371.529 749.215C369.313 743.229 368.204 736.297 368.204 728.414C368.204 722.284 369.034 716.52 371.251 711.118C373.19 705.717 375.961 701.017 379.562 697.018C383.441 693.02 387.875 689.851 393.139 687.518C398.68 685.181 404.497 684.013 411.423 684.013ZM411.702 699.516C405.33 699.516 400.62 701.295 397.019 704.857C393.417 708.419 391.201 713.468 390.092 720.008H430.817C430.817 717.205 430.265 714.563 429.711 712.082C428.879 709.601 427.772 707.426 426.109 705.559C424.447 703.689 422.506 702.215 420.29 701.134C417.796 700.053 415.027 699.516 411.702 699.516Z" fill="black"/>
<path d="M467.946 775.269V685.416H480.413C482.63 685.416 484.293 685.823 485.124 686.642C485.955 687.458 486.508 688.861 486.785 690.845L488.17 701.705C491.495 696.159 495.098 691.778 499.531 688.569C503.964 685.356 508.672 683.751 513.936 683.751C518.369 683.751 522.247 684.772 525.018 686.816L522.247 703.018C521.97 704.068 521.695 704.814 521.141 705.25C520.587 705.69 519.754 705.908 518.646 705.908C517.815 705.908 516.706 705.703 515.321 705.294C513.659 704.887 511.721 704.683 509.228 704.683C504.518 704.683 500.916 705.922 497.591 708.403C494.267 710.886 491.772 714.519 489.556 719.307V775.269H467.946Z" fill="black"/>
<path d="M562.42 685.416V775.269H540.81V685.416H562.42ZM565.745 659.23C565.745 661.097 565.191 662.85 564.36 664.484C563.806 666.119 562.697 667.55 561.589 668.775C560.204 670.001 558.82 670.98 557.157 671.709C555.495 672.438 553.556 672.804 551.616 672.804C549.677 672.804 548.014 672.438 546.351 671.709C544.689 670.98 543.305 670.001 541.92 668.775C540.811 667.55 539.703 666.119 539.149 664.484C538.318 662.85 538.04 661.097 538.04 659.23C538.04 657.304 538.318 655.494 539.149 653.799C539.703 652.107 540.811 650.647 541.92 649.421C543.305 648.196 544.689 647.216 546.351 646.487C548.014 645.758 549.677 645.393 551.616 645.393C553.556 645.393 555.495 645.758 557.157 646.487C558.82 647.216 560.204 648.196 561.589 649.421C562.697 650.647 563.806 652.107 564.36 653.799C565.191 655.494 565.745 657.304 565.745 659.23Z" fill="black"/>
<path d="M586.802 775.269V685.416H600.1C602.871 685.416 604.81 686.729 605.641 689.357L607.027 696.451C608.966 694.581 610.904 692.889 612.844 691.371C614.783 689.851 616.999 688.538 619.215 687.43C621.432 686.319 623.927 685.473 626.42 684.889C628.914 684.305 631.685 684.013 634.732 684.013C639.719 684.013 644.152 684.846 647.754 686.51C651.633 688.173 654.958 690.509 657.451 693.517C659.945 696.522 661.883 700.114 663.268 704.287C664.376 708.463 665.208 713.059 665.208 718.081V775.269H643.598V718.081C643.598 712.592 642.212 708.345 639.719 705.338C637.225 702.333 633.347 700.829 628.36 700.829C624.482 700.829 620.878 701.675 617.83 703.367C614.506 705.062 611.46 707.368 608.412 710.286V775.269H586.802Z" fill="black"/>
<path d="M723.663 684.013C729.204 684.013 734.47 684.919 739.18 686.729C743.889 688.538 748.044 691.18 751.368 694.655C754.97 698.129 757.465 702.39 759.404 707.439C761.343 712.491 762.45 718.256 762.45 724.738C762.45 726.373 762.451 727.729 762.174 728.81C762.174 729.888 761.898 730.737 761.344 731.348C761.067 731.962 760.513 732.399 759.959 732.661C759.127 732.926 758.295 733.057 757.464 733.057H701.777C702.608 742.282 705.1 749.054 709.256 753.374C713.688 757.695 719.507 759.854 726.433 759.854C730.035 759.854 733.082 759.447 735.576 758.628C738.069 757.812 740.287 756.906 742.226 755.913C744.165 754.922 745.827 754.016 747.212 753.2C748.598 752.381 749.983 751.974 751.368 751.974C752.199 751.974 753.03 752.149 753.584 752.498C754.415 752.848 754.971 753.344 755.248 753.988L761.62 761.868C759.126 764.671 756.632 767.021 753.584 768.918C750.537 770.818 747.491 772.335 744.166 773.473C741.118 774.611 737.794 775.414 734.469 775.881C730.867 776.347 727.818 776.582 724.494 776.582C718.398 776.582 712.581 775.545 707.04 773.473C701.776 771.399 697.066 768.334 693.187 764.278C689.308 760.219 685.985 755.198 683.769 749.215C681.552 743.229 680.444 736.297 680.444 728.414C680.444 722.284 681.275 716.52 683.214 711.118C685.431 705.717 688.2 701.017 691.802 697.018C695.68 693.02 700.114 689.851 705.378 687.518C710.919 685.181 716.737 684.013 723.663 684.013ZM723.942 699.516C717.569 699.516 712.857 701.295 709.256 704.857C705.654 708.419 703.437 713.468 702.329 720.008H743.057C743.057 717.205 742.504 714.563 741.95 712.082C741.119 709.601 740.009 707.426 738.346 705.559C736.684 703.689 734.747 702.215 732.253 701.134C730.037 700.053 727.266 699.516 723.942 699.516Z" fill="black"/>
<path d="M866.069 756.265C870.502 756.265 874.656 755.506 878.258 753.989C881.86 752.468 884.91 750.339 887.403 747.594C889.897 744.851 891.836 741.524 892.944 737.61C894.329 733.699 894.881 729.321 894.881 724.473V648.633H918.431V724.473C918.431 732.006 917.323 738.969 914.83 745.361C912.613 751.753 909.011 757.272 904.578 761.912C899.868 766.554 894.327 770.174 887.955 772.772C881.306 775.37 874.104 776.67 866.069 776.67C858.035 776.67 850.553 775.37 844.181 772.772C837.532 770.174 832.268 766.554 827.558 761.912C823.125 757.272 819.523 751.753 817.306 745.361C814.813 738.969 813.429 732.006 813.429 724.473V648.633H837.255V724.386C837.255 729.233 837.809 733.611 839.195 737.522C840.303 741.434 842.242 744.777 844.736 747.55C847.229 750.323 850.276 752.468 853.878 753.989C857.48 755.506 861.359 756.265 866.069 756.265Z" fill="black"/>
<path d="M969.229 648.633H945.585V775.267H969.229V648.633Z" fill="black"/>
<path d="M154.875 913.932V863.662L148.225 862.904C147.394 862.707 146.842 862.407 146.288 861.997C145.734 861.588 145.454 860.996 145.454 860.218V855.955H154.875V850.234C154.875 846.847 155.152 843.842 156.261 841.213C157.092 838.585 158.477 836.369 160.416 834.556C162.079 832.747 164.295 831.377 166.788 830.441C169.281 829.507 172.052 829.04 175.1 829.04C177.87 829.04 180.087 829.431 182.581 830.209L182.305 835.405C182.305 836.183 181.749 836.65 181.195 836.805C180.641 836.961 179.809 837.04 178.701 837.04H176.764C175.101 837.04 173.438 837.272 172.053 837.739C170.391 838.206 169.281 838.964 168.173 840.015C167.065 841.066 166.236 842.45 165.681 844.161C165.127 845.875 164.848 847.996 164.848 850.526V855.955H182.026V863.488H165.127V913.932H154.875Z" fill="black"/>
<path d="M215.824 853.853C219.98 853.853 223.859 854.573 227.461 856.014C231.062 857.453 233.834 859.497 236.327 862.144C238.821 864.789 240.76 867.991 241.868 871.749C243.253 875.505 243.805 879.697 243.805 884.329C243.805 889.001 243.253 893.205 241.868 896.941C240.76 900.678 238.821 903.868 236.327 906.516C233.834 909.163 231.062 911.197 227.461 912.616C223.859 914.038 219.98 914.747 215.824 914.747C211.391 914.747 207.513 914.038 203.911 912.616C200.587 911.197 197.538 909.163 195.045 906.516C192.551 903.868 190.889 900.678 189.504 896.941C188.119 893.205 187.564 889.001 187.564 884.329C187.564 879.697 188.119 875.505 189.504 871.749C190.889 867.991 192.551 864.789 195.045 862.144C197.538 859.497 200.587 857.453 203.911 856.014C207.513 854.573 211.391 853.853 215.824 853.853ZM215.824 906.633C221.642 906.633 226.075 904.676 228.846 900.765C231.617 896.854 233.278 891.395 233.278 884.389C233.278 877.344 231.617 871.856 228.846 867.923C226.075 863.992 221.642 862.027 215.824 862.027C212.776 862.027 210.283 862.532 208.067 863.545C205.851 864.557 203.911 866.017 202.526 867.923C201.141 869.83 200.032 872.175 199.201 874.959C198.647 877.743 198.37 880.884 198.37 884.389C198.37 887.891 198.647 891.024 199.201 893.789C200.032 896.551 201.141 898.876 202.526 900.765C203.911 902.654 205.851 904.103 208.067 905.116C210.283 906.125 212.776 906.633 215.824 906.633Z" fill="black"/>
<path d="M256.827 913.931V854.786H262.647C263.755 854.786 264.585 855.002 265.139 855.43C265.416 855.859 265.693 856.599 265.97 857.649L266.524 866.872C268.741 862.748 271.235 859.527 274.005 857.21C277.053 854.895 280.654 853.735 284.533 853.735C286.195 853.735 287.582 853.921 288.967 854.292C290.353 854.661 291.46 855.177 292.568 855.837L291.459 863.602C291.182 864.576 290.35 865.062 289.519 865.062C288.965 865.062 288.136 864.879 287.027 864.508C285.919 864.14 284.256 863.954 282.317 863.954C278.715 863.954 275.668 865.005 273.175 867.107C270.681 869.208 268.741 872.265 267.079 876.272V913.931H256.827Z" fill="black"/>
<path d="M369.036 883.688C369.59 884.621 370.145 885.604 370.422 886.635C370.976 887.667 371.253 888.71 371.807 889.761C372.084 888.669 372.639 887.629 372.916 886.635C373.47 885.645 374.023 884.64 374.577 883.63L402.837 832.193C403.392 831.298 403.669 830.752 404.223 830.558C404.777 830.364 405.609 830.266 406.717 830.266H415.029V913.932H405.053V852.453C405.053 851.634 405.053 850.758 405.053 849.824C405.053 848.891 405.332 847.939 405.332 846.964L376.793 899.278C375.685 901.027 374.3 901.903 372.638 901.903H370.976C369.314 901.903 367.929 901.027 366.82 899.278L337.454 846.789C337.731 847.802 337.73 848.793 337.73 849.767C337.73 850.739 338.006 851.634 338.006 852.453V913.932H328.033V830.266H336.345C337.453 830.266 338.006 830.364 338.56 830.558C339.115 830.752 339.67 831.298 340.224 832.193L369.036 883.688Z" fill="black"/>
<path d="M477.088 913.931H472.656C471.548 913.931 470.716 913.776 470.162 913.465C469.608 913.151 469.053 912.49 468.776 911.478L467.67 905.989C466.285 907.392 464.621 908.647 463.235 909.756C461.573 910.866 460.187 911.8 458.525 912.559C456.863 913.317 455.202 913.891 453.263 914.281C451.323 914.671 449.383 914.865 447.167 914.865C444.95 914.865 442.734 914.543 440.795 913.901C438.579 913.26 436.915 912.297 435.53 911.011C433.868 909.728 432.76 908.102 431.929 906.136C431.098 904.171 430.544 901.846 430.544 899.16C430.544 896.824 431.375 894.578 432.483 892.416C433.869 890.257 435.808 888.338 438.855 886.665C441.626 884.992 445.227 883.619 449.937 882.549C454.647 881.479 460.189 880.865 467.115 880.71V876.097C467.115 871.504 466.005 868.032 464.066 865.676C462.127 863.321 459.081 862.145 455.202 862.145C452.709 862.145 450.767 862.464 448.828 863.108C447.166 863.749 445.782 864.47 444.396 865.267C443.288 866.064 442.179 866.785 441.071 867.429C440.24 868.07 439.409 868.392 438.301 868.392C437.746 868.392 437.193 868.207 436.639 867.835C436.085 867.467 435.531 867.008 435.254 866.465L433.59 863.135C436.638 859.983 440.242 857.628 444.12 856.072C447.722 854.516 451.878 853.735 456.588 853.735C459.912 853.735 462.958 854.281 465.451 855.37C467.945 856.462 470.163 857.98 471.826 859.926C473.765 861.872 474.873 864.227 475.981 866.989C476.813 869.754 477.088 872.789 477.088 876.097V913.931ZM450.213 907.567C452.153 907.567 453.817 907.381 455.202 907.013C456.865 906.641 458.249 906.117 459.634 905.435C460.742 904.755 462.129 903.928 463.514 902.954C464.622 901.982 465.73 900.871 467.115 899.627V887.306C462.128 887.462 458.249 887.842 454.648 888.445C451.323 889.048 448.829 889.837 446.612 890.811C444.396 891.783 443.01 892.932 441.902 894.255C441.071 895.579 440.516 897.059 440.516 898.694C440.516 900.249 440.796 901.592 441.35 902.722C441.904 903.849 442.456 904.774 443.287 905.495C444.118 906.213 445.228 906.74 446.336 907.07C447.721 907.4 448.828 907.567 450.213 907.567Z" fill="black"/>
<path d="M526.956 864.538C526.402 865.392 525.571 865.821 524.74 865.821C524.186 865.821 523.355 865.608 522.8 865.18C521.969 864.751 521.138 864.273 520.03 863.749C518.922 863.223 517.538 862.737 516.153 862.289C514.767 861.842 512.827 861.618 510.888 861.618C509.225 861.618 507.562 861.842 506.177 862.289C504.792 862.737 503.684 863.351 502.576 864.129C501.468 864.907 500.914 865.813 500.36 866.845C499.806 867.876 499.53 868.995 499.53 870.202C499.53 871.719 499.807 872.983 500.915 873.995C501.746 875.008 502.852 875.884 504.237 876.624C505.623 877.364 507.287 878.016 509.226 878.578C510.889 879.143 512.828 879.746 514.767 880.388C516.707 881.032 518.645 881.741 520.585 882.519C522.247 883.297 523.91 884.271 525.295 885.44C526.68 886.608 528.065 888.038 528.896 889.73C529.727 891.422 530.281 893.459 530.281 895.83C530.281 898.557 529.728 901.076 528.62 903.393C527.789 905.708 526.404 907.714 524.464 909.406C522.525 911.098 520.03 912.433 517.259 913.405C514.489 914.379 511.443 914.865 507.841 914.865C503.685 914.865 499.805 914.193 496.48 912.85C493.156 911.508 490.385 909.785 488.169 907.684L490.385 903.713C490.939 903.208 491.217 902.817 491.494 902.544C492.048 902.274 492.603 902.138 493.434 902.138C493.988 902.138 494.819 902.411 495.65 902.954C496.204 903.5 497.312 904.103 498.42 904.764C499.528 905.427 500.915 906.03 502.3 906.573C503.962 907.119 505.9 907.392 508.393 907.392C510.332 907.392 511.996 907.13 513.658 906.603C515.043 906.079 516.43 905.367 517.538 904.471C518.369 903.576 519.2 902.544 519.754 901.379C520.031 900.211 520.309 898.964 520.309 897.643C520.309 896.008 520.03 894.654 519.199 893.584C518.091 892.514 516.983 891.6 515.598 890.838C514.213 890.079 512.551 889.419 510.612 888.854C508.949 888.289 507.01 887.697 505.071 887.075C503.131 886.452 501.19 885.74 499.251 884.943C497.589 884.146 495.926 883.142 494.54 881.935C492.878 880.729 491.77 879.241 490.939 877.47C490.108 875.699 489.554 873.548 489.554 871.018C489.554 868.761 490.108 866.591 490.939 864.508C492.047 862.426 493.433 860.597 495.095 859.019C497.034 857.445 498.975 856.189 501.745 855.256C504.239 854.319 507.287 853.853 510.612 853.853C514.49 853.853 518.092 854.467 521.139 855.692C524.187 856.918 526.956 858.602 529.172 860.742L526.956 864.538Z" fill="black"/>
<path d="M561.587 914.865C556.877 914.865 553.277 913.56 550.784 910.954C548.29 908.344 546.904 904.589 546.904 899.684V863.487H539.978C539.146 863.487 538.87 863.302 538.316 862.931C537.762 862.562 537.762 861.989 537.762 861.208V857.065L547.459 855.837L549.674 837.564C549.952 836.98 550.228 836.502 550.505 836.134C551.059 835.763 551.615 835.58 552.169 835.58H557.431V855.954H574.333V863.487H557.431V898.985C557.431 901.475 557.987 903.325 559.095 904.531C560.481 905.738 561.864 906.341 563.803 906.341C564.911 906.341 566.021 906.194 566.852 905.902C567.406 905.61 568.238 905.29 568.792 904.938C569.346 904.589 569.9 904.267 570.178 903.975C570.732 903.685 571.007 903.538 571.284 903.538C571.838 903.538 572.394 903.868 572.948 904.531L575.995 909.493C574.055 911.167 571.838 912.479 569.344 913.435C566.851 914.387 564.358 914.865 561.587 914.865Z" fill="black"/>
<path d="M611.182 853.853C615.337 853.853 619.217 854.573 622.818 856.014C626.42 857.453 629.188 859.497 631.682 862.144C634.175 864.789 636.115 867.991 637.223 871.749C638.608 875.505 639.163 879.697 639.163 884.329C639.163 889.001 638.608 893.205 637.223 896.941C636.115 900.678 634.175 903.868 631.682 906.516C629.188 909.163 626.42 911.197 622.818 912.616C619.217 914.038 615.337 914.747 611.182 914.747C606.749 914.747 602.869 914.038 599.545 912.616C595.943 911.197 592.896 909.163 590.403 906.516C588.186 903.868 586.247 900.678 584.862 896.941C583.476 893.205 582.922 889.001 582.922 884.329C582.922 879.697 583.476 875.505 584.862 871.749C586.247 867.991 588.186 864.789 590.403 862.144C592.896 859.497 595.943 857.453 599.545 856.014C602.869 854.573 606.749 853.853 611.182 853.853ZM611.182 906.633C617 906.633 621.433 904.676 624.204 900.765C626.974 896.854 628.635 891.395 628.635 884.389C628.635 877.344 626.974 871.856 624.204 867.923C621.433 863.992 617 862.027 611.182 862.027C608.134 862.027 605.641 862.532 603.425 863.545C601.208 864.557 599.546 866.017 597.884 867.923C596.498 869.83 595.39 872.175 594.558 874.959C594.004 877.743 593.728 880.884 593.728 884.389C593.728 887.891 594.004 891.024 594.558 893.789C595.39 896.551 596.498 898.876 597.884 900.765C599.546 902.654 601.208 904.103 603.425 905.116C605.641 906.125 608.134 906.633 611.182 906.633Z" fill="black"/>
<path d="M693.742 913.931C692.357 913.931 691.249 913.211 690.971 911.77L690.141 904.589C687.37 907.665 684.599 910.127 681.275 911.975C677.95 913.822 674.348 914.748 670.192 914.748C666.868 914.748 663.821 914.095 661.05 912.793C658.28 911.489 655.785 909.57 653.845 907.043C651.906 904.513 650.522 901.357 649.413 897.583C648.305 893.808 647.752 889.468 647.752 884.564C647.752 880.205 648.305 876.146 649.413 872.391C650.799 868.635 652.462 865.374 654.679 862.611C656.895 859.847 659.387 857.677 662.711 856.102C665.759 854.524 669.36 853.736 673.239 853.736C677.118 853.736 680.166 854.35 682.66 855.575C685.153 856.801 687.647 858.523 689.586 860.742V827.93H699.838V913.931H693.742ZM673.518 906.341C677.119 906.341 679.89 905.563 682.384 904.005C685.154 902.449 687.37 900.249 689.586 897.408V868.799C687.647 866.231 685.431 864.432 683.215 863.4C680.998 862.369 678.504 861.853 675.734 861.853C670.192 861.853 666.038 863.818 662.99 867.748C659.943 871.681 658.556 877.285 658.556 884.564C658.556 888.418 658.834 891.715 659.665 894.46C660.219 897.203 661.05 899.461 662.435 901.232C663.821 903.003 665.207 904.297 667.146 905.116C669.085 905.932 671.301 906.341 673.518 906.341Z" fill="black"/>
<path d="M741.399 853.853C745.554 853.853 749.434 854.573 753.035 856.014C756.637 857.453 759.405 859.497 761.899 862.144C764.392 864.789 766.332 867.991 767.44 871.749C768.825 875.505 769.38 879.697 769.38 884.329C769.38 889.001 768.825 893.205 767.44 896.941C766.332 900.678 764.392 903.868 761.899 906.516C759.405 909.163 756.637 911.197 753.035 912.616C749.434 914.038 745.554 914.747 741.399 914.747C736.966 914.747 733.087 914.038 729.486 912.616C726.161 911.197 723.113 909.163 720.62 906.516C718.403 903.868 716.464 900.678 715.078 896.941C713.693 893.205 713.139 889.001 713.139 884.329C713.139 879.697 713.693 875.505 715.078 871.749C716.464 867.991 718.403 864.789 720.62 862.144C723.113 859.497 726.161 857.453 729.486 856.014C733.087 854.573 736.966 853.853 741.399 853.853ZM741.399 906.633C747.217 906.633 751.65 904.676 754.421 900.765C757.191 896.854 758.852 891.395 758.852 884.389C758.852 877.344 757.191 871.856 754.421 867.923C751.65 863.992 747.217 862.027 741.399 862.027C738.351 862.027 735.858 862.532 733.642 863.545C731.425 864.557 729.486 866.017 728.101 867.923C726.715 869.83 725.607 872.175 724.775 874.959C724.221 877.743 723.945 880.884 723.945 884.389C723.945 887.891 724.221 891.024 724.775 893.789C725.607 896.551 726.715 898.876 728.101 900.765C729.486 902.654 731.425 904.103 733.642 905.116C735.858 906.125 738.351 906.633 741.399 906.633Z" fill="black"/>
<path d="M782.402 913.931V854.786H788.498C789.883 854.786 790.991 855.507 791.268 856.948L792.099 863.37C794.592 860.529 797.639 858.233 800.686 856.481C804.011 854.729 807.613 853.853 811.769 853.853C815.093 853.853 817.865 854.388 820.359 855.458C822.852 856.53 824.792 858.048 826.455 860.013C828.117 861.978 829.501 864.342 830.332 867.106C831.163 869.869 831.441 872.926 831.441 876.272V913.931H821.189V876.272C821.189 871.796 820.082 868.324 818.143 865.851C815.927 863.378 812.878 862.144 808.722 862.144C805.674 862.144 802.628 862.884 800.134 864.364C797.364 865.84 794.87 867.846 792.654 870.376V913.931H782.402Z" fill="black"/>
</svg>
