<svg width="970" height="851" viewBox="0 0 970 851" fill="none" xmlns="http://www.w3.org/2000/svg">
<path d="M642.521 372.068C637.877 395.981 600.933 422.152 558.502 427.224C536.376 429.866 514.592 432.296 491.362 431.229C453.372 429.487 432.715 413.781 426.218 422.933C422.571 428.069 422.662 433.622 423.503 438.204C430.413 475.857 454.277 482.16 483.537 473.349C500.185 468.338 544.14 435.094 544.14 473.862C544.14 499.277 529.766 505.377 491.362 507.508C470.185 508.674 443.89 506.975 413.264 498.86C346.841 481.261 335.418 410.384 333.67 338.468C333.137 317.116 333.466 296.982 333.466 280.142C333.466 206.605 381.598 185.049 381.598 185.049C405.868 173.892 447.512 169.2 490.806 168.846H491.869C535.163 169.2 576.835 173.892 601.103 185.049C601.103 185.049 649.233 206.605 649.233 280.142C649.233 280.142 649.837 334.399 642.521 372.068Z" fill="#FD8935"/>
<path fill-rule="evenodd" clip-rule="evenodd" d="M649.684 373.462C647.564 384.386 639.815 395.91 627.848 405.952C611.198 419.925 586.341 431.253 559.367 434.478C536.847 437.168 514.672 439.612 491.028 438.527C467.6 437.451 450.574 431.28 439.269 428.491C437.399 428.029 435.72 427.671 434.224 427.496C433.48 427.408 432.403 427.446 431.96 427.468C429.873 430.641 430.165 434.069 430.681 436.883C433.588 452.727 439.543 462.289 448.368 466.65C457.401 471.112 468.837 470.147 481.435 466.354C486.172 464.928 493.211 461.028 500.784 457.35C509.542 453.096 518.931 449.157 526.749 448.234C533.908 447.391 540.016 448.927 544.456 453.138C548.451 456.928 551.438 463.346 551.438 473.862C551.438 483.142 549.654 490.256 546.187 495.806C542.014 502.491 535.36 507.172 525.353 510.155C516.964 512.657 505.918 514.017 491.766 514.803H491.762C469.972 516.001 442.911 514.273 411.396 505.923C375.689 496.462 354.656 472.794 342.424 441.711C330.762 412.079 327.27 375.504 326.374 338.651C325.839 317.231 326.168 297.035 326.168 280.142C326.168 202.026 377.464 178.891 378.582 178.396C403.527 166.941 446.273 161.903 490.746 161.54C490.766 161.54 490.786 161.54 490.806 161.54H491.87C491.89 161.54 491.91 161.54 491.93 161.54C536.391 161.903 579.158 166.939 604.088 178.383C604.63 178.62 656.517 201.558 656.531 280.086C656.544 281.421 657.026 335.661 649.684 373.462ZM635.356 370.675C642.556 333.61 641.935 280.225 641.935 280.225C641.935 280.197 641.935 280.17 641.935 280.142C641.935 212.053 598.122 191.718 598.122 191.718C598.1 191.708 598.078 191.697 598.056 191.688C574.465 180.841 533.926 176.498 491.839 176.151H490.837C448.749 176.498 408.238 180.841 384.643 191.688C384.621 191.697 384.599 191.708 384.578 191.718C384.578 191.718 340.764 212.053 340.764 280.142C340.764 296.929 340.435 317.001 340.966 338.286V338.291C341.818 373.349 344.911 408.171 356.004 436.356C366.526 463.09 384.417 483.659 415.131 491.798C444.868 499.677 470.397 501.344 490.959 500.214C503.689 499.507 513.64 498.404 521.186 496.152C527.117 494.384 531.335 492.026 533.81 488.064C536.041 484.49 536.842 479.835 536.842 473.862C536.842 468.224 536.309 464.76 533.837 463.309C532.1 462.289 529.839 462.491 527.351 462.902C523.483 463.545 519.226 465.083 514.922 466.92C503.809 471.662 492.47 478.29 485.639 480.346C468.977 485.363 453.854 485.652 441.909 479.751C429.756 473.747 420.327 461.339 416.324 439.524C415.175 433.262 415.286 425.719 420.269 418.7C423.684 413.891 429.015 411.94 437.045 413.133C447.602 414.7 465.451 422.727 491.696 423.931C514.512 424.979 535.906 422.564 557.638 419.969C581.581 417.107 603.69 407.159 618.472 394.754C627.461 387.209 633.763 378.881 635.356 370.675Z" fill="black"/>
<path fill-rule="evenodd" clip-rule="evenodd" d="M491.308 7.30554C513.069 7.30554 540.283 60.2928 540.283 87.3508C540.283 109.151 526.039 127.647 506.369 134.012C502.76 135.18 504.466 168.85 503.498 168.844C502.096 168.837 480.901 168.852 479.644 168.844C478.155 168.839 480.994 135.548 476.249 134.012C456.577 127.647 442.333 109.151 442.333 87.3508C442.333 60.2928 469.547 7.30554 491.308 7.30554Z" fill="#85D023"/>
<path fill-rule="evenodd" clip-rule="evenodd" d="M512.018 139.739C511.783 141.732 511.441 144.99 511.347 147.731C511.06 156.01 511.243 165.517 510.989 168.519C510.42 175.246 504.534 176.156 503.459 176.15C502.058 176.143 480.866 176.157 479.609 176.15C477.812 176.143 476.011 175.573 474.417 173.989C473.78 173.356 472.935 172.315 472.433 170.611C472.193 169.794 471.932 168.004 471.879 165.528C471.778 160.942 472.043 152.608 471.709 145.721C471.616 143.79 471.295 141.43 471.065 139.922C449.996 131.778 435.035 111.3 435.035 87.3508C435.035 67.0706 449.138 33.1125 465.697 14.6075C473.99 5.33852 483.14 0 491.308 0C499.476 0 508.626 5.33852 516.919 14.6075C533.478 33.1125 547.581 67.0706 547.581 87.3508C547.581 111.123 532.841 131.475 512.018 139.739ZM486.615 161.541C489.706 161.541 493.339 161.539 496.449 161.537C496.495 154.115 496.725 141.509 497.71 136.105C498.199 133.427 499.038 131.476 499.801 130.357C501.064 128.505 502.634 127.542 504.123 127.06C520.865 121.643 532.985 105.903 532.985 87.3508C532.985 72.2374 523.649 48.5144 511.978 31.8888C508.239 26.5648 504.262 21.9752 500.212 18.748C497.172 16.3243 494.231 14.6111 491.308 14.6111C488.385 14.6111 485.444 16.3243 482.404 18.748C478.354 21.9752 474.378 26.5648 470.64 31.8888C458.967 48.5144 449.631 72.2374 449.631 87.3508C449.631 105.903 461.753 121.643 478.493 127.06C480.875 127.833 484.063 130.516 485.269 135.969C486.489 141.496 486.639 154.213 486.615 161.541Z" fill="black"/>
<path d="M560.378 233.184C561.453 239.318 567.293 243.418 573.423 242.34C579.553 241.262 583.65 235.415 582.576 229.281C581.501 223.147 575.66 219.048 569.531 220.126C563.401 221.204 559.303 227.05 560.378 233.184Z" fill="black"/>
<path d="M551.667 261.083C552.741 267.217 558.582 271.317 564.712 270.239C570.841 269.161 574.939 263.314 573.864 257.18C572.789 251.046 566.949 246.947 560.819 248.025C554.689 249.103 550.592 254.949 551.667 261.083Z" fill="black"/>
<path d="M580.312 254.217C581.387 260.352 587.227 264.451 593.357 263.373C599.487 262.295 603.585 256.449 602.51 250.315C601.435 244.18 595.594 240.081 589.465 241.159C583.335 242.237 579.237 248.083 580.312 254.217Z" fill="black"/>
<path fill-rule="evenodd" clip-rule="evenodd" d="M397.55 203.111C403.496 200.798 410.198 203.755 412.509 209.708C414.821 215.661 411.875 222.368 405.922 224.688C400.398 226.836 395.869 231.059 392.585 238.367C389.971 244.191 383.125 246.791 377.306 244.172C371.487 241.553 368.886 234.697 371.501 228.873C377.792 214.865 386.954 207.234 397.55 203.111Z" fill="#FFE2CC"/>
<path d="M100.018 583.914V603.288H61.7852V710.682H38.2356V603.288H0V583.914H100.018Z" fill="white"/>
<path d="M162.63 710.682H152.934C150.994 710.682 149.331 710.373 148.223 709.761C147.115 709.146 146.007 707.906 145.453 706.034L143.515 699.636C141.299 701.679 139.081 703.477 136.865 705.026C134.649 706.576 132.431 707.876 130.215 708.928C127.721 709.98 125.23 710.769 122.736 711.294C119.966 711.821 117.195 712.084 113.87 712.084C109.991 712.084 106.667 711.573 103.343 710.551C100.295 709.526 97.5244 707.993 95.031 705.947C92.8145 703.901 91.1511 701.36 89.7658 698.319C88.3806 695.281 87.8259 691.745 87.8259 687.712C87.8259 684.322 88.6571 680.978 90.5965 677.675C92.2588 674.371 95.3069 671.391 99.4627 668.732C103.619 666.074 109.161 663.866 115.81 662.115C122.736 660.361 131.324 659.366 141.575 659.134V653.872C141.575 647.853 140.189 643.396 137.696 640.503C135.202 637.61 131.6 636.164 126.613 636.164C123.289 636.164 120.242 636.574 118.026 637.391C115.532 638.211 113.592 639.129 111.93 640.153C110.268 641.175 108.606 642.096 106.944 642.916C105.558 643.733 103.896 644.142 102.233 644.142C100.848 644.142 99.4633 643.763 98.6321 643.003C97.5239 642.244 96.6927 641.306 95.8616 640.197L91.9817 633.271C102.233 623.804 114.7 619.069 129.384 619.069C134.648 619.069 139.36 619.93 143.515 621.656C147.671 623.38 150.995 625.777 154.043 628.845C156.813 631.913 159.029 635.58 160.415 639.847C162.077 644.112 162.63 648.787 162.63 653.872V710.682ZM120.518 697.18C123.011 697.18 124.953 696.975 126.892 696.568C128.554 696.158 130.492 695.543 132.155 694.726C133.817 693.906 135.48 692.898 136.865 691.702C138.527 690.502 139.913 689.087 141.575 687.45V672.284C135.203 672.576 129.939 673.115 125.783 673.904C121.627 674.694 118.025 675.702 115.531 676.929C113.038 678.155 111.098 679.59 109.99 681.224C109.159 682.86 108.605 684.644 108.605 686.573C108.605 690.371 109.714 693.089 111.93 694.726C114.147 696.363 116.916 697.18 120.518 697.18Z" fill="white"/>
<path d="M183.965 710.682V620.736H197.263C200.034 620.736 201.973 622.05 202.804 624.681L204.189 631.782C206.129 629.91 207.793 628.216 210.009 626.697C211.949 625.176 214.165 623.861 216.381 622.752C218.597 621.64 221.09 620.793 223.583 620.208C226.077 619.624 228.847 619.331 231.895 619.331C236.882 619.331 241.315 620.165 244.917 621.831C248.796 623.495 251.843 625.834 254.614 628.845C257.107 631.853 259.046 635.449 260.431 639.626C261.539 643.806 262.371 648.407 262.371 653.435V710.682H240.761V653.435C240.761 647.94 239.375 643.689 236.881 640.678C234.388 637.67 230.51 636.164 225.523 636.164C221.644 636.164 218.043 637.011 214.996 638.705C211.671 640.402 208.622 642.711 205.575 645.631V710.682H183.965Z" fill="white"/>
<path d="M314.734 619.156C318.613 619.156 322.213 619.55 325.538 620.339C328.863 621.129 331.912 622.282 334.683 623.804H360.724V631.869C360.724 633.213 360.172 634.265 359.618 635.025C358.787 635.784 357.676 636.309 356.014 636.601L347.981 638.093C348.535 639.612 349.089 641.219 349.366 642.915C349.643 644.609 349.642 646.391 349.642 648.262C349.642 652.705 348.813 656.721 347.15 660.317C345.211 663.91 342.717 666.964 339.669 669.478C336.622 671.991 333.02 673.934 328.587 675.308C324.431 676.68 319.721 677.368 314.734 677.368C311.133 677.368 308.084 677.046 304.759 676.404C301.988 678.098 300.603 679.997 300.603 682.1C300.603 683.912 301.435 685.242 303.098 686.089C304.76 686.936 306.976 687.537 309.469 687.887C312.24 688.237 315.289 688.458 318.89 688.546C322.215 688.633 325.816 688.822 329.418 689.114C333.02 689.406 336.621 689.917 339.945 690.649C343.547 691.379 346.596 692.535 349.366 694.111C351.86 695.69 354.076 697.838 355.738 700.556C357.4 703.272 358.233 706.764 358.233 711.032C358.233 715.007 357.401 718.862 355.462 722.602C353.523 726.343 350.75 729.676 346.872 732.597C343.27 735.52 338.562 737.873 333.298 739.654C328.034 741.438 321.66 742.329 315.01 742.329C308.084 742.329 302.266 741.67 297.002 740.356C292.015 739.042 287.859 737.288 284.535 735.097C281.21 732.905 278.995 730.375 277.332 727.512C275.67 724.649 274.838 721.668 274.838 718.57C274.838 714.362 275.947 710.827 278.717 707.963C281.211 705.1 284.812 702.821 289.245 701.125C287.029 699.898 285.365 698.261 283.98 696.215C282.595 694.171 282.043 691.51 282.043 688.237C282.043 686.893 282.318 685.505 282.595 684.073C283.149 682.641 283.982 681.223 284.813 679.822C285.921 678.42 287.029 677.09 288.414 675.833C289.8 674.576 291.737 673.45 293.677 672.459C288.967 670.002 285.367 666.729 282.873 662.639C280.38 658.549 278.993 653.757 278.993 648.262C278.993 643.82 279.825 639.801 281.764 636.208C283.426 632.612 285.92 629.544 289.245 627.003C292.293 624.46 296.171 622.517 300.327 621.173C304.76 619.828 309.47 619.156 314.734 619.156ZM338.284 714.714C338.284 712.96 337.73 711.529 336.899 710.417C335.791 709.307 334.404 708.444 332.464 707.832C330.802 707.217 328.586 706.764 326.093 706.471C323.599 706.182 321.106 705.961 318.336 705.816C315.842 705.668 312.795 705.523 310.024 705.376C307.253 705.231 304.483 704.982 301.712 704.633C299.219 705.977 297.281 707.57 295.895 709.409C294.233 711.25 293.401 713.37 293.401 715.766C293.401 717.343 293.955 718.818 294.786 720.192C295.617 721.567 296.725 722.75 298.387 723.744C300.327 724.736 302.543 725.512 305.314 726.067C307.807 726.621 311.41 726.9 315.289 726.9C319.168 726.9 322.767 726.591 325.538 725.979C328.586 725.365 331.08 724.518 333.019 723.436C334.681 722.356 336.067 721.07 337.175 719.578C338.006 718.089 338.284 716.466 338.284 714.714ZM314.734 663.516C317.228 663.516 319.721 663.15 321.661 662.421C323.6 661.688 325.262 660.68 326.647 659.396C328.033 658.109 328.863 656.56 329.694 654.748C330.248 652.937 330.527 650.951 330.527 648.787C330.527 644.347 329.141 640.825 326.647 638.224C323.877 635.623 319.999 634.323 314.734 634.323C309.193 634.323 305.315 635.623 302.822 638.224C300.051 640.825 298.666 644.347 298.666 648.787C298.666 650.891 298.941 652.85 299.773 654.661C300.327 656.473 301.436 658.038 302.822 659.352C303.93 660.666 305.592 661.688 307.808 662.421C309.748 663.15 311.964 663.516 314.734 663.516Z" fill="white"/>
<path d="M411.424 619.331C416.965 619.331 422.231 620.238 426.941 622.05C431.65 623.861 435.805 626.506 439.129 629.984C442.731 633.462 445.502 637.727 447.441 642.782C449.38 647.839 450.211 653.609 450.211 660.098C450.211 661.735 450.213 663.093 449.935 664.175C449.935 665.254 449.659 666.104 449.105 666.716C448.828 667.33 448.274 667.767 447.72 668.03C446.888 668.295 446.333 668.426 445.225 668.426H389.814C390.368 677.661 392.863 684.439 397.019 688.764C401.452 693.089 407.268 695.251 414.194 695.251C417.796 695.251 420.846 694.843 423.339 694.024C425.833 693.207 428.048 692.3 429.987 691.305C431.926 690.313 433.588 689.406 434.974 688.59C436.359 687.77 437.744 687.363 439.129 687.363C439.96 687.363 440.794 687.538 441.348 687.887C442.179 688.237 442.732 688.734 443.009 689.379L449.381 697.267C446.887 700.073 444.396 702.425 441.348 704.324C438.3 706.226 435.252 707.745 431.927 708.884C428.879 710.023 425.555 710.827 422.23 711.294C418.905 711.761 415.582 711.996 412.257 711.996C406.162 711.996 400.343 710.958 395.079 708.884C389.538 706.808 384.827 703.739 380.948 699.679C377.069 695.617 373.746 690.589 371.53 684.6C369.313 678.609 368.205 671.669 368.205 663.779C368.205 657.642 369.035 651.872 371.251 646.465C373.19 641.058 375.961 636.353 379.563 632.35C383.441 628.347 387.875 625.176 393.139 622.84C398.681 620.501 404.498 619.331 411.424 619.331ZM411.703 634.85C405.33 634.85 400.621 636.632 397.019 640.197C393.418 643.762 391.201 648.817 390.093 655.363H430.818C430.818 652.557 430.265 649.913 429.711 647.429C428.88 644.946 427.772 642.768 426.11 640.899C424.448 639.028 422.507 637.552 420.29 636.47C417.797 635.388 415.027 634.85 411.703 634.85Z" fill="white"/>
<path d="M467.946 710.682V620.736H480.414C482.63 620.736 484.293 621.143 485.124 621.962C485.955 622.779 486.508 624.184 486.786 626.17L488.171 637.042C491.495 631.49 495.099 627.105 499.532 623.892C503.965 620.676 508.672 619.069 513.936 619.069C518.369 619.069 522.248 620.091 525.018 622.137L522.248 638.356C521.971 639.407 521.695 640.154 521.141 640.591C520.587 641.031 519.755 641.249 518.647 641.249C517.816 641.249 516.707 641.044 515.322 640.634C513.659 640.227 511.722 640.022 509.229 640.022C504.519 640.022 500.916 641.263 497.592 643.746C494.267 646.233 491.773 649.869 489.556 654.661V710.682H467.946Z" fill="white"/>
<path d="M562.42 620.736V710.682H540.811V620.736H562.42ZM565.746 594.523C565.746 596.392 565.192 598.146 564.36 599.782C563.806 601.419 562.698 602.851 561.59 604.077C560.205 605.304 558.82 606.285 557.158 607.015C555.496 607.744 553.556 608.11 551.617 608.11C549.678 608.11 548.014 607.744 546.352 607.015C544.69 606.285 543.305 605.304 541.92 604.077C540.812 602.851 539.704 601.419 539.15 599.782C538.318 598.146 538.04 596.392 538.04 594.523C538.04 592.594 538.318 590.783 539.15 589.086C539.704 587.392 540.812 585.93 541.92 584.704C543.305 583.477 544.69 582.496 546.352 581.766C548.014 581.037 549.678 580.671 551.617 580.671C553.556 580.671 555.496 581.037 557.158 581.766C558.82 582.496 560.205 583.477 561.59 584.704C562.698 585.93 563.806 587.392 564.36 589.086C565.192 590.783 565.746 592.594 565.746 594.523Z" fill="white"/>
<path d="M586.803 710.682V620.736H600.101C602.872 620.736 604.811 622.05 605.642 624.681L607.027 631.782C608.967 629.91 610.905 628.216 612.845 626.697C614.784 625.176 617 623.861 619.216 622.752C621.433 621.64 623.928 620.793 626.421 620.208C628.915 619.624 631.685 619.331 634.733 619.331C639.72 619.331 644.153 620.165 647.755 621.831C651.634 623.495 654.958 625.834 657.452 628.845C659.945 631.853 661.884 635.449 663.269 639.626C664.377 643.806 665.209 648.407 665.209 653.435V710.682H643.599V653.435C643.599 647.94 642.213 643.689 639.719 640.678C637.226 637.67 633.348 636.164 628.361 636.164C624.482 636.164 620.879 637.011 617.831 638.705C614.506 640.402 611.46 642.711 608.413 645.631V710.682H586.803Z" fill="white"/>
<path d="M723.664 619.331C729.205 619.331 734.47 620.238 739.18 622.05C743.89 623.861 748.044 626.506 751.369 629.984C754.971 633.462 757.465 637.727 759.405 642.782C761.344 647.839 762.451 653.609 762.451 660.098C762.451 661.735 762.452 663.093 762.175 664.175C762.175 665.254 761.899 666.104 761.345 666.716C761.068 667.33 760.513 667.767 759.959 668.03C759.128 668.295 758.296 668.426 757.465 668.426H701.778C702.609 677.661 705.101 684.439 709.256 688.764C713.689 693.089 719.508 695.251 726.434 695.251C730.036 695.251 733.083 694.843 735.576 694.024C738.07 693.207 740.287 692.3 742.227 691.305C744.166 690.313 745.828 689.406 747.213 688.59C748.599 687.77 749.984 687.363 751.369 687.363C752.2 687.363 753.031 687.538 753.585 687.887C754.416 688.237 754.972 688.734 755.249 689.379L761.621 697.267C759.127 700.073 756.633 702.425 753.585 704.324C750.537 706.226 747.491 707.745 744.167 708.884C741.119 710.023 737.794 710.827 734.47 711.294C730.868 711.761 727.819 711.996 724.494 711.996C718.399 711.996 712.582 710.958 707.04 708.884C701.776 706.808 697.066 703.739 693.188 699.679C689.309 695.617 685.986 690.589 683.77 684.6C681.553 678.609 680.444 671.669 680.444 663.779C680.444 657.642 681.275 651.872 683.215 646.465C685.431 641.058 688.201 636.353 691.802 632.35C695.681 628.347 700.115 625.176 705.379 622.84C710.92 620.501 716.737 619.331 723.664 619.331ZM723.942 634.85C717.57 634.85 712.858 636.632 709.256 640.197C705.655 643.762 703.438 648.817 702.33 655.363H743.057C743.057 652.557 742.505 649.913 741.951 647.429C741.12 644.946 740.009 642.768 738.347 640.899C736.685 639.028 734.747 637.552 732.254 636.47C730.038 635.388 727.267 634.85 723.942 634.85Z" fill="white"/>
<path d="M866.07 691.658C870.503 691.658 874.657 690.898 878.259 689.379C881.861 687.857 884.911 685.726 887.404 682.978C889.898 680.232 891.837 676.901 892.945 672.983C894.33 669.068 894.882 664.686 894.882 659.833V583.914H918.432V659.833C918.432 667.374 917.324 674.344 914.831 680.743C912.614 687.142 909.012 692.666 904.579 697.311C899.869 701.958 894.328 705.581 887.956 708.182C881.307 710.783 874.105 712.084 866.07 712.084C858.036 712.084 850.554 710.783 844.182 708.182C837.533 705.581 832.269 701.958 827.559 697.311C823.126 692.666 819.524 687.142 817.307 680.743C814.814 674.344 813.43 667.374 813.43 659.833V583.914H837.256V659.746C837.256 664.598 837.81 668.981 839.196 672.896C840.304 676.811 842.243 680.158 844.737 682.934C847.23 685.71 850.277 687.857 853.879 689.379C857.481 690.898 861.361 691.658 866.07 691.658Z" fill="white"/>
<path d="M969.23 583.914H945.586V710.679H969.23V583.914Z" fill="white"/>
<path d="M154.876 849.488V799.167L148.225 798.407C147.394 798.21 146.842 797.91 146.288 797.5C145.734 797.09 145.455 796.497 145.455 795.718V791.451H154.876V785.724C154.876 782.334 155.153 779.325 156.261 776.694C157.092 774.063 158.477 771.845 160.417 770.031C162.079 768.219 164.295 766.848 166.788 765.91C169.282 764.976 172.052 764.509 175.1 764.509C177.87 764.509 180.087 764.899 182.581 765.678L182.305 770.88C182.305 771.659 181.75 772.126 181.196 772.282C180.642 772.438 179.809 772.517 178.701 772.517H176.764C175.102 772.517 173.439 772.749 172.053 773.216C170.391 773.683 169.282 774.443 168.174 775.495C167.065 776.547 166.236 777.932 165.682 779.645C165.128 781.361 164.848 783.484 164.848 786.017V791.451H182.026V798.992H165.127V849.488H154.876Z" fill="white"/>
<path d="M215.824 789.347C219.98 789.347 223.859 790.068 227.461 791.511C231.063 792.951 233.834 794.997 236.327 797.647C238.821 800.295 240.76 803.5 241.868 807.262C243.254 811.021 243.806 815.218 243.806 819.854C243.806 824.532 243.254 828.739 241.868 832.48C240.76 836.22 238.821 839.414 236.327 842.064C233.834 844.714 231.063 846.75 227.461 848.171C223.859 849.594 219.98 850.304 215.824 850.304C211.391 850.304 207.513 849.594 203.911 848.171C200.587 846.75 197.539 844.714 195.045 842.064C192.552 839.414 190.889 836.22 189.504 832.48C188.119 828.739 187.564 824.532 187.564 819.854C187.564 815.218 188.119 811.021 189.504 807.262C190.889 803.5 192.552 800.295 195.045 797.647C197.539 794.997 200.587 792.951 203.911 791.511C207.513 790.068 211.391 789.347 215.824 789.347ZM215.824 842.182C221.642 842.182 226.076 840.223 228.846 836.308C231.617 832.392 233.278 826.928 233.278 819.914C233.278 812.863 231.617 807.368 228.846 803.431C226.076 799.497 221.642 797.53 215.824 797.53C212.777 797.53 210.284 798.035 208.067 799.049C205.851 800.062 203.911 801.524 202.526 803.431C201.141 805.341 200.032 807.688 199.201 810.475C198.647 813.262 198.37 816.406 198.37 819.914C198.37 823.42 198.647 826.556 199.201 829.324C200.032 832.089 201.141 834.417 202.526 836.308C203.911 838.198 205.851 839.649 208.067 840.663C210.284 841.674 212.777 842.182 215.824 842.182Z" fill="white"/>
<path d="M256.828 849.488V790.281H262.647C263.756 790.281 264.585 790.497 265.139 790.926C265.416 791.355 265.693 792.095 265.97 793.147L266.525 802.379C268.741 798.251 271.235 795.027 274.006 792.707C277.053 790.39 280.654 789.229 284.533 789.229C286.195 789.229 287.582 789.415 288.968 789.787C290.353 790.156 291.46 790.672 292.569 791.333L291.459 799.106C291.182 800.081 290.351 800.568 289.519 800.568C288.965 800.568 288.136 800.385 287.028 800.013C285.919 799.644 284.257 799.459 282.317 799.459C278.715 799.459 275.668 800.51 273.175 802.614C270.681 804.718 268.741 807.778 267.079 811.789V849.488H256.828Z" fill="white"/>
<path d="M369.037 819.212C369.591 820.147 370.145 821.13 370.422 822.163C370.976 823.196 371.253 824.24 371.807 825.292C372.084 824.199 372.64 823.158 372.917 822.163C373.471 821.171 374.024 820.166 374.578 819.155L402.838 767.664C403.392 766.768 403.669 766.222 404.223 766.028C404.777 765.834 405.61 765.735 406.718 765.735H415.029V849.488H405.054V787.945C405.054 787.126 405.054 786.249 405.054 785.314C405.054 784.38 405.332 783.426 405.332 782.451L376.794 834.819C375.686 836.57 374.3 837.447 372.638 837.447H370.977C369.314 837.447 367.929 836.57 366.821 834.819L337.454 782.276C337.731 783.29 337.73 784.281 337.73 785.257C337.73 786.23 338.006 787.126 338.006 787.945V849.488H328.033V765.735H336.345C337.453 765.735 338.007 765.834 338.561 766.028C339.115 766.222 339.671 766.768 340.225 767.664L369.037 819.212Z" fill="white"/>
<path d="M477.089 849.488H472.657C471.549 849.488 470.716 849.332 470.162 849.02C469.608 848.706 469.054 848.045 468.777 847.031L467.671 841.537C466.285 842.941 464.621 844.198 463.236 845.307C461.574 846.419 460.188 847.354 458.526 848.113C456.863 848.873 455.203 849.447 453.263 849.837C451.324 850.228 449.384 850.422 447.167 850.422C444.951 850.422 442.735 850.1 440.796 849.458C438.579 848.815 436.916 847.851 435.531 846.564C433.868 845.28 432.761 843.652 431.929 841.685C431.098 839.717 430.544 837.389 430.544 834.701C430.544 832.362 431.376 830.114 432.484 827.95C433.869 825.789 435.808 823.868 438.856 822.193C441.626 820.518 445.228 819.144 449.938 818.073C454.648 817.002 460.19 816.387 467.116 816.231V811.614C467.116 807.016 466.006 803.54 464.067 801.183C462.127 798.825 459.082 797.647 455.203 797.647C452.71 797.647 450.768 797.967 448.829 798.612C447.166 799.254 445.782 799.975 444.397 800.773C443.289 801.571 442.18 802.292 441.072 802.937C440.241 803.579 439.409 803.901 438.301 803.901C437.747 803.901 437.194 803.715 436.64 803.344C436.086 802.975 435.532 802.516 435.255 801.972L433.591 798.639C436.638 795.483 440.242 793.125 444.121 791.568C447.723 790.011 451.878 789.229 456.588 789.229C459.913 789.229 462.958 789.776 465.452 790.866C467.945 791.959 470.164 793.478 471.826 795.426C473.766 797.374 474.874 799.732 475.982 802.497C476.813 805.264 477.089 808.303 477.089 811.614V849.488ZM450.214 843.116C452.153 843.116 453.818 842.93 455.203 842.562C456.865 842.19 458.25 841.665 459.635 840.982C460.743 840.302 462.129 839.474 463.515 838.499C464.623 837.526 465.731 836.414 467.116 835.168V822.835C462.129 822.991 458.25 823.371 454.648 823.975C451.324 824.578 448.829 825.368 446.613 826.343C444.396 827.316 443.011 828.466 441.902 829.791C441.071 831.116 440.517 832.597 440.517 834.234C440.517 835.791 440.796 837.135 441.35 838.266C441.904 839.395 442.456 840.321 443.288 841.042C444.119 841.761 445.229 842.288 446.337 842.619C447.722 842.949 448.829 843.116 450.214 843.116Z" fill="white"/>
<path d="M526.957 800.043C526.403 800.898 525.572 801.327 524.741 801.327C524.187 801.327 523.355 801.114 522.801 800.685C521.97 800.256 521.139 799.778 520.031 799.254C518.922 798.726 517.539 798.24 516.153 797.792C514.768 797.344 512.828 797.12 510.888 797.12C509.226 797.12 507.563 797.344 506.178 797.792C504.793 798.24 503.685 798.855 502.577 799.634C501.468 800.412 500.915 801.319 500.361 802.352C499.807 803.385 499.53 804.505 499.53 805.713C499.53 807.232 499.807 808.497 500.915 809.51C501.747 810.524 502.853 811.401 504.238 812.141C505.623 812.882 507.288 813.535 509.227 814.098C510.889 814.663 512.829 815.267 514.768 815.909C516.707 816.554 518.646 817.264 520.585 818.043C522.247 818.822 523.91 819.797 525.296 820.966C526.681 822.136 528.066 823.567 528.897 825.261C529.728 826.955 530.282 828.994 530.282 831.368C530.282 834.097 529.729 836.619 528.621 838.939C527.79 841.256 526.404 843.264 524.465 844.958C522.526 846.652 520.031 847.988 517.26 848.96C514.489 849.936 511.443 850.422 507.842 850.422C503.686 850.422 499.806 849.75 496.481 848.406C493.156 847.061 490.386 845.337 488.169 843.234L490.385 839.258C490.939 838.753 491.217 838.362 491.495 838.089C492.049 837.818 492.603 837.682 493.434 837.682C493.989 837.682 494.819 837.955 495.65 838.499C496.204 839.045 497.313 839.649 498.421 840.31C499.529 840.974 500.915 841.578 502.301 842.122C503.963 842.668 505.9 842.941 508.394 842.941C510.333 842.941 511.996 842.679 513.659 842.152C515.044 841.627 516.43 840.914 517.539 840.018C518.37 839.122 519.2 838.089 519.755 836.922C520.032 835.753 520.309 834.504 520.309 833.182C520.309 831.545 520.031 830.19 519.2 829.119C518.092 828.048 516.984 827.133 515.599 826.371C514.213 825.611 512.552 824.95 510.612 824.384C508.95 823.819 507.011 823.226 505.071 822.603C503.132 821.98 501.191 821.267 499.251 820.469C497.589 819.671 495.926 818.666 494.541 817.458C492.879 816.251 491.771 814.762 490.94 812.988C490.109 811.215 489.555 809.062 489.555 806.53C489.555 804.27 490.109 802.098 490.94 800.013C492.048 797.929 493.433 796.098 495.096 794.519C497.035 792.942 498.975 791.685 501.746 790.751C504.24 789.814 507.288 789.347 510.612 789.347C514.491 789.347 518.092 789.962 521.14 791.188C524.187 792.415 526.956 794.101 529.173 796.243L526.957 800.043Z" fill="white"/>
<path d="M561.588 850.422C556.878 850.422 553.278 849.116 550.785 846.507C548.291 843.895 546.905 840.135 546.905 835.225V798.991H539.978C539.147 798.991 538.871 798.805 538.317 798.434C537.763 798.065 537.762 797.491 537.762 796.71V792.562L547.459 791.333L549.675 773.041C549.952 772.456 550.229 771.978 550.506 771.609C551.06 771.238 551.616 771.055 552.17 771.055H557.432V791.45H574.334V798.991H557.432V834.526C557.432 837.018 557.988 838.87 559.096 840.078C560.481 841.285 561.865 841.889 563.804 841.889C564.912 841.889 566.022 841.742 566.853 841.449C567.407 841.157 568.239 840.837 568.793 840.485C569.347 840.135 569.901 839.813 570.178 839.521C570.732 839.231 571.008 839.083 571.285 839.083C571.839 839.083 572.395 839.414 572.949 840.078L575.995 845.045C574.056 846.72 571.838 848.034 569.345 848.99C566.851 849.944 564.359 850.422 561.588 850.422Z" fill="white"/>
<path d="M611.182 789.347C615.338 789.347 619.218 790.068 622.819 791.511C626.421 792.951 629.189 794.997 631.683 797.647C634.176 800.295 636.116 803.5 637.224 807.262C638.609 811.021 639.164 815.218 639.164 819.854C639.164 824.532 638.609 828.739 637.224 832.48C636.116 836.22 634.176 839.414 631.683 842.064C629.189 844.714 626.421 846.75 622.819 848.171C619.218 849.594 615.338 850.304 611.182 850.304C606.75 850.304 602.87 849.594 599.546 848.171C595.944 846.75 592.897 844.714 590.403 842.064C588.187 839.414 586.248 836.22 584.862 832.48C583.477 828.739 582.922 824.532 582.922 819.854C582.922 815.218 583.477 811.021 584.862 807.262C586.248 803.5 588.187 800.295 590.403 797.647C592.897 794.997 595.944 792.951 599.546 791.511C602.87 790.068 606.75 789.347 611.182 789.347ZM611.182 842.182C617.001 842.182 621.434 840.223 624.204 836.308C626.975 832.392 628.636 826.928 628.636 819.914C628.636 812.863 626.975 807.368 624.204 803.431C621.434 799.497 617.001 797.53 611.182 797.53C608.135 797.53 605.642 798.035 603.425 799.049C601.209 800.062 599.547 801.524 597.884 803.431C596.499 805.341 595.39 807.688 594.559 810.475C594.005 813.262 593.729 816.406 593.729 819.914C593.729 823.42 594.005 826.556 594.559 829.324C595.39 832.089 596.499 834.417 597.884 836.308C599.547 838.198 601.209 839.649 603.425 840.663C605.642 841.674 608.135 842.182 611.182 842.182Z" fill="white"/>
<path d="M693.743 849.488C692.358 849.488 691.249 848.766 690.972 847.324L690.142 840.135C687.371 843.215 684.6 845.679 681.275 847.529C677.951 849.378 674.349 850.305 670.193 850.305C666.869 850.305 663.822 849.652 661.051 848.348C658.28 847.042 655.785 845.122 653.846 842.592C651.907 840.059 650.522 836.901 649.414 833.122C648.306 829.343 647.753 824.999 647.753 820.09C647.753 815.726 648.306 811.663 649.414 807.904C650.799 804.144 652.463 800.879 654.679 798.114C656.896 795.347 659.388 793.175 662.712 791.598C665.76 790.019 669.361 789.229 673.24 789.229C677.118 789.229 680.167 789.844 682.661 791.071C685.154 792.298 687.648 794.022 689.587 796.243V763.397H699.839V849.488H693.743ZM673.518 841.889C677.12 841.889 679.891 841.111 682.385 839.551C685.155 837.993 687.371 835.791 689.587 832.947V804.308C687.648 801.737 685.432 799.937 683.215 798.904C680.999 797.871 678.505 797.355 675.734 797.355C670.193 797.355 666.038 799.322 662.991 803.257C659.943 807.194 658.556 812.803 658.556 820.09C658.556 823.947 658.835 827.248 659.666 829.996C660.22 832.742 661.051 835.002 662.436 836.775C663.822 838.548 665.207 839.843 667.147 840.663C669.086 841.48 671.302 841.889 673.518 841.889Z" fill="white"/>
<path d="M741.399 789.347C745.555 789.347 749.435 790.068 753.036 791.511C756.638 792.951 759.406 794.997 761.9 797.647C764.393 800.295 766.333 803.5 767.441 807.262C768.826 811.021 769.381 815.218 769.381 819.854C769.381 824.532 768.826 828.739 767.441 832.48C766.333 836.22 764.393 839.414 761.9 842.064C759.406 844.714 756.638 846.75 753.036 848.171C749.435 849.594 745.555 850.304 741.399 850.304C736.967 850.304 733.088 849.594 729.487 848.171C726.162 846.75 723.114 844.714 720.62 842.064C718.404 839.414 716.465 836.22 715.079 832.48C713.694 828.739 713.139 824.532 713.139 819.854C713.139 815.218 713.694 811.021 715.079 807.262C716.465 803.5 718.404 800.295 720.62 797.647C723.114 794.997 726.162 792.951 729.487 791.511C733.088 790.068 736.967 789.347 741.399 789.347ZM741.399 842.182C747.218 842.182 751.651 840.223 754.422 836.308C757.192 832.392 758.853 826.928 758.853 819.914C758.853 812.863 757.192 807.368 754.422 803.431C751.651 799.497 747.218 797.53 741.399 797.53C738.352 797.53 735.859 798.035 733.642 799.049C731.426 800.062 729.487 801.524 728.101 803.431C726.716 805.341 725.607 807.688 724.776 810.475C724.222 813.262 723.946 816.406 723.946 819.914C723.946 823.42 724.222 826.556 724.776 829.324C725.607 832.089 726.716 834.417 728.101 836.308C729.487 838.198 731.426 839.649 733.642 840.663C735.859 841.674 738.352 842.182 741.399 842.182Z" fill="white"/>
<path d="M782.403 849.488V790.281H788.499C789.884 790.281 790.992 791.002 791.269 792.445L792.1 798.874C794.593 796.03 797.64 793.732 800.687 791.978C804.012 790.224 807.614 789.347 811.769 789.347C815.094 789.347 817.866 789.882 820.36 790.953C822.853 792.027 824.793 793.546 826.455 795.513C828.118 797.48 829.501 799.846 830.333 802.614C831.164 805.379 831.442 808.439 831.442 811.789V849.488H821.19V811.789C821.19 807.308 820.083 803.833 818.144 801.357C815.927 798.882 812.879 797.647 808.723 797.647C805.675 797.647 802.629 798.388 800.135 799.868C797.365 801.347 794.871 803.355 792.654 805.887V849.488H782.403Z" fill="white"/>
</svg>
