<svg width="1437" height="595" viewBox="0 0 1437 595" fill="none" xmlns="http://www.w3.org/2000/svg">
<path d="M550.867 213.303V233.036H511.928V342.415H487.943V233.036H449V213.303H550.867Z" fill="black"/>
<path d="M614.637 342.415H604.761C602.786 342.415 601.092 342.101 599.964 341.477C598.835 340.851 597.706 339.588 597.142 337.682L595.169 331.165C592.911 333.246 590.653 335.077 588.396 336.655C586.138 338.233 583.88 339.557 581.622 340.629C579.083 341.7 576.545 342.504 574.006 343.038C571.184 343.576 568.362 343.843 564.975 343.843C561.025 343.843 557.639 343.322 554.253 342.281C551.149 341.238 548.328 339.677 545.788 337.593C543.531 335.508 541.836 332.92 540.425 329.823C539.015 326.729 538.45 323.128 538.45 319.021C538.45 315.568 539.296 312.162 541.271 308.797C542.965 305.433 546.069 302.397 550.302 299.69C554.534 296.982 560.179 294.734 566.951 292.95C574.006 291.163 582.753 290.15 593.193 289.914V284.554C593.193 278.424 591.781 273.885 589.242 270.939C586.702 267.992 583.034 266.52 577.954 266.52C574.568 266.52 571.465 266.937 569.208 267.769C566.668 268.604 564.693 269.539 563 270.582C561.307 271.623 559.614 272.561 557.921 273.396C556.51 274.228 554.817 274.645 553.123 274.645C551.713 274.645 550.302 274.258 549.456 273.485C548.327 272.711 547.48 271.757 546.634 270.627L542.682 263.573C553.123 253.931 565.821 249.108 580.776 249.108C586.138 249.108 590.936 249.985 595.169 251.743C599.402 253.499 602.787 255.94 605.891 259.065C608.713 262.19 610.97 265.924 612.381 270.271C614.074 274.615 614.637 279.376 614.637 284.554V342.415ZM571.746 328.663C574.286 328.663 576.263 328.454 578.238 328.04C579.931 327.622 581.905 326.996 583.598 326.164C585.291 325.329 586.985 324.302 588.396 323.084C590.089 321.862 591.5 320.421 593.193 318.754V303.307C586.703 303.605 581.341 304.153 577.108 304.957C572.876 305.761 569.207 306.788 566.667 308.038C564.128 309.287 562.153 310.748 561.024 312.412C560.177 314.079 559.613 315.896 559.613 317.86C559.613 321.728 560.742 324.497 563 326.164C565.257 327.831 568.078 328.663 571.746 328.663Z" fill="black"/>
<path d="M636.367 342.415V250.806H649.91C652.732 250.806 654.707 252.144 655.554 254.824L656.965 262.056C658.94 260.15 660.635 258.425 662.892 256.878C664.867 255.328 667.124 253.989 669.382 252.859C671.639 251.727 674.178 250.864 676.717 250.269C679.257 249.673 682.079 249.375 685.183 249.375C690.262 249.375 694.777 250.224 698.445 251.922C702.396 253.616 705.5 255.998 708.322 259.065C710.861 262.129 712.835 265.791 714.246 270.045C715.375 274.303 716.222 278.989 716.222 284.109V342.415H694.213V284.109C694.213 278.513 692.801 274.183 690.261 271.117C687.722 268.053 683.772 266.519 678.693 266.519C674.743 266.519 671.075 267.382 667.971 269.108C664.585 270.836 661.48 273.187 658.376 276.162V342.415H636.367Z" fill="black"/>
<path d="M769.554 249.197C773.504 249.197 777.171 249.598 780.557 250.402C783.943 251.206 787.049 252.381 789.871 253.931H816.394V262.145C816.394 263.514 815.831 264.585 815.267 265.359C814.42 266.133 813.29 266.667 811.596 266.965L803.415 268.484C803.979 270.031 804.544 271.667 804.826 273.395C805.108 275.121 805.107 276.935 805.107 278.841C805.107 283.366 804.262 287.457 802.569 291.119C800.594 294.778 798.054 297.889 794.95 300.449C791.846 303.009 788.177 304.988 783.663 306.387C779.43 307.784 774.633 308.485 769.554 308.485C765.885 308.485 762.78 308.157 759.394 307.503C756.572 309.228 755.161 311.162 755.161 313.305C755.161 315.15 756.009 316.505 757.702 317.368C759.395 318.23 761.652 318.843 764.191 319.199C767.013 319.555 770.118 319.78 773.786 319.869C777.173 319.958 780.84 320.15 784.509 320.448C788.177 320.746 791.845 321.266 795.231 322.012C798.899 322.755 802.004 323.932 804.826 325.538C807.365 327.146 809.622 329.333 811.315 332.102C813.008 334.868 813.856 338.424 813.856 342.771C813.856 346.82 813.01 350.746 811.034 354.556C809.059 358.365 806.236 361.76 802.285 364.735C798.617 367.712 793.822 370.108 788.46 371.923C783.099 373.74 776.607 374.647 769.835 374.647C762.78 374.647 756.855 373.976 751.493 372.638C746.414 371.299 742.182 369.513 738.795 367.281C735.409 365.049 733.153 362.473 731.46 359.556C729.767 356.64 728.919 353.604 728.919 350.448C728.919 346.163 730.049 342.562 732.871 339.646C735.41 336.73 739.078 334.409 743.593 332.681C741.336 331.431 739.641 329.765 738.231 327.68C736.82 325.599 736.257 322.889 736.257 319.555C736.257 318.186 736.537 316.772 736.82 315.314C737.384 313.856 738.233 312.412 739.079 310.984C740.208 309.557 741.336 308.202 742.747 306.922C744.158 305.642 746.131 304.495 748.107 303.485C743.31 300.983 739.643 297.649 737.103 293.484C734.564 289.318 733.152 284.437 733.152 278.841C733.152 274.317 733.998 270.223 735.974 266.564C737.667 262.902 740.207 259.777 743.593 257.189C746.697 254.598 750.647 252.62 754.88 251.251C759.395 249.882 764.192 249.197 769.554 249.197ZM793.539 346.522C793.539 344.736 792.974 343.277 792.128 342.145C790.999 341.015 789.587 340.136 787.611 339.512C785.918 338.886 783.662 338.424 781.122 338.127C778.582 337.832 776.043 337.606 773.222 337.459C770.682 337.309 767.578 337.161 764.756 337.011C761.934 336.863 759.113 336.61 756.291 336.254C753.751 337.623 751.777 339.245 750.366 341.118C748.673 342.994 747.826 345.153 747.826 347.593C747.826 349.199 748.39 350.702 749.237 352.101C750.083 353.501 751.211 354.706 752.904 355.719C754.88 356.729 757.137 357.519 759.959 358.084C762.498 358.649 766.168 358.933 770.119 358.933C774.069 358.933 777.735 358.619 780.557 357.995C783.661 357.369 786.201 356.506 788.176 355.404C789.869 354.305 791.28 352.995 792.409 351.475C793.256 349.959 793.539 348.306 793.539 346.522ZM769.554 294.377C772.093 294.377 774.633 294.004 776.608 293.261C778.583 292.516 780.276 291.489 781.687 290.181C783.098 288.87 783.943 287.292 784.79 285.447C785.354 283.602 785.638 281.58 785.638 279.376C785.638 274.854 784.226 271.267 781.687 268.618C778.865 265.969 774.915 264.644 769.554 264.644C763.91 264.644 759.96 265.969 757.421 268.618C754.599 271.267 753.188 274.854 753.188 279.376C753.188 281.518 753.469 283.513 754.315 285.358C754.88 287.203 756.01 288.798 757.421 290.136C758.549 291.475 760.242 292.516 762.499 293.261C764.475 294.004 766.732 294.377 769.554 294.377Z" fill="black"/>
<path d="M868.031 249.375C873.674 249.375 879.038 250.299 883.835 252.144C888.632 253.989 892.863 256.683 896.249 260.225C899.917 263.768 902.739 268.111 904.714 273.259C906.689 278.41 907.536 284.287 907.536 290.896C907.536 292.563 907.537 293.946 907.255 295.048C907.255 296.147 906.973 297.012 906.409 297.636C906.126 298.262 905.562 298.707 904.998 298.974C904.151 299.244 903.586 299.378 902.457 299.378H846.022C846.586 308.783 849.127 315.687 853.36 320.092C857.875 324.497 863.798 326.698 870.853 326.698C874.521 326.698 877.627 326.284 880.167 325.449C882.706 324.617 884.962 323.693 886.937 322.68C888.913 321.67 890.605 320.746 892.016 319.914C893.427 319.079 894.838 318.665 896.249 318.665C897.095 318.665 897.944 318.843 898.508 319.199C899.355 319.555 899.918 320.062 900.2 320.718L906.69 328.752C904.15 331.61 901.612 334.006 898.508 335.94C895.404 337.876 892.299 339.424 888.913 340.584C885.809 341.744 882.423 342.562 879.037 343.038C875.651 343.514 872.266 343.753 868.88 343.753C862.672 343.753 856.746 342.696 851.384 340.584C845.741 338.469 840.942 335.344 836.992 331.209C833.041 327.071 829.657 321.951 827.399 315.851C825.142 309.749 824.013 302.681 824.013 294.644C824.013 288.394 824.858 282.517 827.115 277.01C829.091 271.503 831.912 266.712 835.581 262.635C839.531 258.558 844.047 255.328 849.408 252.948C855.052 250.566 860.977 249.375 868.031 249.375ZM868.315 265.181C861.825 265.181 857.028 266.995 853.36 270.627C849.692 274.258 847.434 279.406 846.306 286.074H887.783C887.783 283.216 887.221 280.522 886.656 277.993C885.81 275.463 884.682 273.245 882.989 271.342C881.295 269.436 879.319 267.933 877.061 266.831C874.522 265.729 871.701 265.181 868.315 265.181Z" fill="black"/>
<path d="M925.599 342.415V250.806H938.297C940.554 250.806 942.248 251.22 943.094 252.055C943.941 252.887 944.504 254.318 944.786 256.341L946.197 267.413C949.583 261.759 953.253 257.292 957.768 254.02C962.283 250.745 967.077 249.108 972.439 249.108C976.954 249.108 980.904 250.149 983.726 252.233L980.904 268.751C980.622 269.823 980.341 270.583 979.777 271.028C979.213 271.476 978.365 271.698 977.236 271.698C976.39 271.698 975.261 271.49 973.85 271.072C972.157 270.658 970.184 270.449 967.644 270.449C962.847 270.449 959.178 271.712 955.792 274.242C952.406 276.774 949.865 280.478 947.608 285.359V342.415H925.599Z" fill="black"/>
<path d="M1021.82 250.806V342.415H999.81V250.806H1021.82ZM1025.21 224.108C1025.21 226.012 1024.64 227.798 1023.8 229.465C1023.23 231.132 1022.1 232.59 1020.97 233.839C1019.56 235.089 1018.15 236.088 1016.46 236.831C1014.77 237.574 1012.79 237.947 1010.82 237.947C1008.84 237.947 1007.15 237.574 1005.45 236.831C1003.76 236.088 1002.35 235.089 1000.94 233.839C999.811 232.59 998.683 231.132 998.118 229.465C997.272 227.798 996.989 226.012 996.989 224.108C996.989 222.144 997.272 220.299 998.118 218.571C998.683 216.846 999.811 215.357 1000.94 214.107C1002.35 212.858 1003.76 211.859 1005.45 211.116C1007.15 210.373 1008.84 210 1010.82 210C1012.79 210 1014.77 210.373 1016.46 211.116C1018.15 211.859 1019.56 212.858 1020.97 214.107C1022.1 215.357 1023.23 216.846 1023.8 218.571C1024.64 220.299 1025.21 222.144 1025.21 224.108Z" fill="black"/>
<path d="M1046.65 342.415V250.806H1060.2C1063.02 250.806 1064.99 252.144 1065.84 254.824L1067.25 262.056C1069.23 260.15 1071.2 258.425 1073.18 256.878C1075.15 255.328 1077.41 253.989 1079.67 252.859C1081.92 251.727 1084.46 250.864 1087 250.269C1089.54 249.673 1092.36 249.375 1095.47 249.375C1100.55 249.375 1105.06 250.224 1108.73 251.922C1112.68 253.616 1116.07 255.998 1118.61 259.065C1121.15 262.129 1123.12 265.791 1124.53 270.045C1125.66 274.303 1126.51 278.989 1126.51 284.109V342.415H1104.5V284.109C1104.5 278.513 1103.09 274.183 1100.55 271.117C1098.01 268.053 1094.06 266.519 1088.98 266.519C1085.03 266.519 1081.36 267.382 1078.25 269.108C1074.87 270.836 1071.77 273.187 1068.66 276.162V342.415H1046.65Z" fill="black"/>
<path d="M1186.04 249.375C1191.69 249.375 1197.05 250.299 1201.85 252.144C1206.64 253.989 1210.88 256.683 1214.26 260.225C1217.93 263.768 1220.47 268.111 1222.45 273.259C1224.42 278.41 1225.55 284.287 1225.55 290.896C1225.55 292.563 1225.55 293.946 1225.27 295.048C1225.27 296.147 1224.99 297.012 1224.42 297.636C1224.14 298.262 1223.58 298.707 1223.01 298.974C1222.16 299.244 1221.32 299.378 1220.47 299.378H1163.75C1164.6 308.783 1167.14 315.687 1171.37 320.092C1175.89 324.497 1181.81 326.698 1188.87 326.698C1192.53 326.698 1195.64 326.284 1198.18 325.449C1200.72 324.617 1202.98 323.693 1204.95 322.68C1206.93 321.67 1208.62 320.746 1210.03 319.914C1211.44 319.079 1212.85 318.665 1214.26 318.665C1215.11 318.665 1215.95 318.843 1216.52 319.199C1217.37 319.555 1217.93 320.062 1218.21 320.718L1224.7 328.752C1222.16 331.61 1219.62 334.006 1216.52 335.94C1213.41 337.876 1210.31 339.424 1206.93 340.584C1203.82 341.744 1200.44 342.562 1197.05 343.038C1193.38 343.514 1190.28 343.753 1186.89 343.753C1180.68 343.753 1174.76 342.696 1169.11 340.584C1163.75 338.469 1158.96 335.344 1155 331.209C1151.05 327.071 1147.67 321.951 1145.41 315.851C1143.15 309.749 1142.03 302.681 1142.03 294.644C1142.03 288.394 1142.87 282.517 1144.85 277.01C1147.1 271.503 1149.93 266.712 1153.59 262.635C1157.54 258.558 1162.06 255.328 1167.42 252.948C1173.06 250.566 1178.99 249.375 1186.04 249.375ZM1186.33 265.181C1179.84 265.181 1175.04 266.995 1171.37 270.627C1167.7 274.258 1165.44 279.406 1164.32 286.074H1205.8C1205.8 283.216 1205.23 280.522 1204.67 277.993C1203.82 275.463 1202.69 273.245 1201 271.342C1199.31 269.436 1197.33 267.933 1194.79 266.831C1192.54 265.729 1189.71 265.181 1186.33 265.181Z" fill="black"/>
<path d="M1331.08 323.039C1335.6 323.039 1339.83 322.266 1343.5 320.719C1347.17 319.169 1350.27 316.998 1352.81 314.199C1355.35 311.402 1357.33 308.01 1358.46 304.019C1359.87 300.032 1360.43 295.568 1360.43 290.626V213.303H1384.41V290.626C1384.41 298.307 1383.29 305.405 1380.75 311.922C1378.49 318.439 1374.82 324.066 1370.3 328.797C1365.51 333.53 1359.86 337.22 1353.37 339.869C1346.6 342.518 1339.27 343.843 1331.08 343.843C1322.9 343.843 1315.28 342.518 1308.79 339.869C1302.02 337.22 1296.66 333.53 1291.86 328.797C1287.35 324.066 1283.68 318.439 1281.42 311.922C1278.88 305.405 1277.47 298.307 1277.47 290.626V213.303H1301.74V290.537C1301.74 295.479 1302.3 299.943 1303.71 303.93C1304.84 307.918 1306.82 311.327 1309.36 314.154C1311.9 316.981 1315 319.169 1318.67 320.719C1322.34 322.266 1326.29 323.039 1331.08 323.039Z" fill="black"/>
<path d="M1436.15 213.303H1412.07V342.412H1436.15V213.303Z" fill="black"/>
<path d="M476.026 483.787V432.536L469.253 431.762C468.406 431.562 467.844 431.256 467.28 430.838C466.715 430.421 466.431 429.817 466.431 429.024V424.677H476.026V418.845C476.026 415.391 476.308 412.328 477.437 409.648C478.283 406.968 479.694 404.709 481.67 402.861C483.363 401.016 485.619 399.619 488.159 398.665C490.699 397.713 493.52 397.237 496.624 397.237C499.446 397.237 501.704 397.635 504.244 398.428L503.963 403.726C503.963 404.519 503.397 404.995 502.833 405.154C502.268 405.312 501.421 405.393 500.292 405.393H498.319C496.626 405.393 494.932 405.63 493.522 406.106C491.828 406.581 490.699 407.355 489.57 408.426C488.441 409.498 487.596 410.908 487.032 412.653C486.468 414.401 486.183 416.563 486.183 419.143V424.677H503.679V432.358H486.467V483.787H476.026Z" fill="black"/>
<path d="M538.102 422.534C542.334 422.534 546.285 423.269 549.954 424.738C553.622 426.205 556.444 428.289 558.984 430.988C561.523 433.685 563.499 436.949 564.627 440.781C566.038 444.61 566.6 448.884 566.6 453.606C566.6 458.37 566.038 462.655 564.627 466.465C563.499 470.274 561.523 473.527 558.984 476.227C556.444 478.926 553.622 480.999 549.954 482.446C546.285 483.896 542.334 484.619 538.102 484.619C533.587 484.619 529.637 483.896 525.969 482.446C522.583 480.999 519.478 478.926 516.938 476.227C514.399 473.527 512.706 470.274 511.295 466.465C509.884 462.655 509.319 458.37 509.319 453.606C509.319 448.884 509.884 444.61 511.295 440.781C512.706 436.949 514.399 433.685 516.938 430.988C519.478 428.289 522.583 426.205 525.969 424.738C529.637 423.269 533.587 422.534 538.102 422.534ZM538.102 476.346C544.027 476.346 548.543 474.351 551.365 470.363C554.186 466.376 555.878 460.81 555.878 453.667C555.878 446.485 554.186 440.889 551.365 436.879C548.543 432.872 544.027 430.869 538.102 430.869C534.998 430.869 532.459 431.383 530.201 432.416C527.944 433.448 525.969 434.937 524.558 436.879C523.147 438.824 522.018 441.215 521.171 444.053C520.607 446.891 520.325 450.094 520.325 453.667C520.325 457.237 520.607 460.432 521.171 463.251C522.018 466.067 523.147 468.438 524.558 470.363C525.969 472.289 527.944 473.767 530.201 474.799C532.459 475.829 534.998 476.346 538.102 476.346Z" fill="black"/>
<path d="M579.863 483.787V423.486H585.791C586.919 423.486 587.764 423.706 588.329 424.143C588.611 424.58 588.893 425.334 589.175 426.405L589.74 435.808C591.997 431.603 594.537 428.32 597.359 425.957C600.463 423.597 604.131 422.415 608.081 422.415C609.774 422.415 611.187 422.604 612.598 422.982C614.008 423.358 615.137 423.884 616.265 424.557L615.135 432.474C614.853 433.468 614.006 433.963 613.16 433.963C612.595 433.963 611.75 433.777 610.622 433.398C609.493 433.022 607.799 432.833 605.824 432.833C602.156 432.833 599.053 433.904 596.513 436.047C593.973 438.19 591.998 441.306 590.304 445.391V483.787H579.863Z" fill="black"/>
<path d="M694.147 452.952C694.712 453.904 695.276 454.906 695.558 455.958C696.122 457.009 696.405 458.072 696.969 459.144C697.251 458.031 697.817 456.97 698.099 455.958C698.663 454.947 699.226 453.923 699.791 452.894L728.573 400.451C729.138 399.538 729.42 398.982 729.984 398.784C730.548 398.587 731.396 398.486 732.525 398.486H740.99V483.787H730.83V421.107C730.83 420.272 730.83 419.379 730.83 418.427C730.83 417.476 731.114 416.505 731.114 415.511L702.048 468.847C700.919 470.631 699.508 471.524 697.815 471.524H696.123C694.43 471.524 693.019 470.631 691.89 468.847L661.981 415.333C662.263 416.365 662.262 417.375 662.262 418.369C662.262 419.36 662.543 420.272 662.543 421.107V483.787H652.386V398.486H660.851C661.98 398.486 662.543 398.587 663.108 398.784C663.672 398.982 664.238 399.538 664.802 400.451L694.147 452.952Z" fill="black"/>
<path d="M804.197 483.787H799.683C798.555 483.787 797.707 483.629 797.143 483.311C796.578 482.991 796.014 482.318 795.732 481.286L794.605 475.69C793.194 477.12 791.499 478.4 790.088 479.53C788.395 480.662 786.984 481.614 785.291 482.387C783.598 483.161 781.906 483.746 779.931 484.143C777.956 484.541 775.98 484.739 773.723 484.739C771.465 484.739 769.208 484.41 767.233 483.757C764.976 483.103 763.281 482.12 761.871 480.81C760.177 479.502 759.049 477.843 758.203 475.84C757.356 473.836 756.792 471.465 756.792 468.727C756.792 466.345 757.639 464.055 758.768 461.851C760.179 459.65 762.153 457.694 765.257 455.988C768.079 454.282 771.747 452.882 776.544 451.792C781.341 450.701 786.985 450.075 794.04 449.916V445.213C794.04 440.53 792.909 436.99 790.934 434.589C788.959 432.188 785.857 430.988 781.907 430.988C779.367 430.988 777.39 431.314 775.414 431.971C773.721 432.624 772.312 433.359 770.901 434.172C769.772 434.984 768.643 435.719 767.514 436.376C766.668 437.03 765.821 437.358 764.692 437.358C764.128 437.358 763.565 437.169 763 436.79C762.436 436.414 761.872 435.947 761.589 435.393L759.895 431.998C762.999 428.784 766.669 426.383 770.62 424.797C774.288 423.211 778.521 422.415 783.318 422.415C786.704 422.415 789.805 422.971 792.345 424.082C794.885 425.195 797.144 426.742 798.837 428.726C800.813 430.71 801.941 433.111 803.07 435.928C803.917 438.746 804.197 441.841 804.197 445.213V483.787ZM776.825 477.298C778.801 477.298 780.496 477.109 781.907 476.733C783.6 476.355 785.01 475.82 786.42 475.125C787.549 474.432 788.961 473.589 790.372 472.595C791.501 471.605 792.629 470.472 794.04 469.203V456.642C788.961 456.8 785.01 457.187 781.342 457.802C777.956 458.417 775.415 459.222 773.158 460.215C770.9 461.206 769.489 462.377 768.36 463.727C767.514 465.076 766.949 466.585 766.949 468.251C766.949 469.838 767.234 471.207 767.798 472.359C768.362 473.508 768.924 474.451 769.771 475.186C770.617 475.918 771.748 476.455 772.877 476.791C774.287 477.128 775.414 477.298 776.825 477.298Z" fill="black"/>
<path d="M854.987 433.429C854.423 434.3 853.577 434.737 852.73 434.737C852.166 434.737 851.319 434.519 850.755 434.082C849.908 433.646 849.061 433.159 847.933 432.624C846.804 432.087 845.395 431.592 843.984 431.136C842.573 430.679 840.597 430.451 838.621 430.451C836.928 430.451 835.235 430.679 833.824 431.136C832.413 431.592 831.285 432.218 830.156 433.011C829.027 433.804 828.464 434.728 827.899 435.78C827.335 436.832 827.053 437.973 827.053 439.203C827.053 440.75 827.336 442.038 828.464 443.071C829.311 444.103 830.437 444.996 831.848 445.75C833.259 446.505 834.954 447.169 836.93 447.743C838.623 448.319 840.598 448.934 842.573 449.588C844.548 450.244 846.522 450.968 848.498 451.761C850.191 452.554 851.884 453.548 853.295 454.739C854.706 455.93 856.116 457.388 856.963 459.113C857.809 460.838 858.374 462.914 858.374 465.332C858.374 468.112 857.811 470.681 856.682 473.043C855.835 475.403 854.424 477.448 852.449 479.173C850.474 480.899 847.933 482.259 845.111 483.25C842.289 484.243 839.187 484.739 835.519 484.739C831.286 484.739 827.334 484.054 823.948 482.685C820.562 481.316 817.74 479.56 815.482 477.417L817.739 473.369C818.304 472.854 818.587 472.456 818.869 472.178C819.433 471.902 819.998 471.763 820.845 471.763C821.409 471.763 822.255 472.041 823.102 472.595C823.666 473.152 824.795 473.767 825.924 474.44C827.052 475.116 828.464 475.731 829.875 476.285C831.568 476.841 833.541 477.12 836.081 477.12C838.056 477.12 839.75 476.853 841.443 476.316C842.854 475.781 844.266 475.055 845.395 474.142C846.241 473.229 847.087 472.178 847.652 470.989C847.934 469.798 848.217 468.527 848.217 467.18C848.217 465.513 847.933 464.133 847.087 463.042C845.958 461.951 844.83 461.019 843.419 460.243C842.008 459.469 840.316 458.796 838.34 458.22C836.647 457.644 834.672 457.04 832.697 456.405C830.722 455.771 828.745 455.045 826.77 454.232C825.076 453.42 823.383 452.396 821.972 451.166C820.279 449.936 819.151 448.419 818.304 446.613C817.458 444.807 816.893 442.614 816.893 440.035C816.893 437.733 817.458 435.521 818.304 433.398C819.433 431.275 820.844 429.41 822.537 427.802C824.512 426.196 826.488 424.916 829.31 423.965C831.85 423.01 834.954 422.534 838.34 422.534C842.291 422.534 845.959 423.161 849.063 424.41C852.167 425.659 854.987 427.376 857.244 429.558L854.987 433.429Z" fill="black"/>
<path d="M890.259 484.739C885.462 484.739 881.795 483.409 879.255 480.751C876.716 478.091 875.304 474.262 875.304 469.261V432.357H868.249C867.403 432.357 867.122 432.168 866.557 431.79C865.993 431.414 865.993 430.83 865.993 430.034V425.81L875.869 424.557L878.126 405.927C878.408 405.332 878.689 404.845 878.972 404.469C879.536 404.091 880.102 403.904 880.666 403.904H886.026V424.677H903.24V432.357H886.026V468.549C886.026 471.087 886.592 472.974 887.721 474.204C889.132 475.433 890.54 476.048 892.515 476.048C893.644 476.048 894.775 475.898 895.621 475.6C896.185 475.303 897.033 474.977 897.597 474.618C898.161 474.262 898.726 473.934 899.008 473.636C899.572 473.341 899.853 473.191 900.135 473.191C900.699 473.191 901.265 473.527 901.83 474.204L904.932 479.262C902.957 480.968 900.699 482.307 898.159 483.281C895.619 484.252 893.08 484.739 890.259 484.739Z" fill="black"/>
<path d="M940.77 422.534C945.003 422.534 948.954 423.269 952.622 424.738C956.29 426.205 959.11 428.289 961.649 430.988C964.189 433.685 966.164 436.949 967.293 440.781C968.704 444.61 969.269 448.884 969.269 453.606C969.269 458.37 968.704 462.655 967.293 466.465C966.164 470.274 964.189 473.527 961.649 476.227C959.11 478.926 956.29 480.999 952.622 482.446C948.954 483.896 945.003 484.619 940.77 484.619C936.255 484.619 932.304 483.896 928.918 482.446C925.25 480.999 922.146 478.926 919.607 476.227C917.349 473.527 915.374 470.274 913.963 466.465C912.552 462.655 911.987 458.37 911.987 453.606C911.987 448.884 912.552 444.61 913.963 440.781C915.374 436.949 917.349 433.685 919.607 430.988C922.146 428.289 925.25 426.205 928.918 424.738C932.304 423.269 936.255 422.534 940.77 422.534ZM940.77 476.346C946.696 476.346 951.211 474.351 954.033 470.363C956.855 466.376 958.547 460.81 958.547 453.667C958.547 446.485 956.855 440.889 954.033 436.879C951.211 432.872 946.696 430.869 940.77 430.869C937.666 430.869 935.127 431.383 932.87 432.416C930.612 433.448 928.919 434.937 927.226 436.879C925.815 438.824 924.686 441.215 923.839 444.053C923.275 446.891 922.993 450.094 922.993 453.667C922.993 457.237 923.275 460.432 923.839 463.251C924.686 466.067 925.815 468.438 927.226 470.363C928.919 472.289 930.612 473.767 932.87 474.799C935.127 475.829 937.666 476.346 940.77 476.346Z" fill="black"/>
<path d="M1024.86 483.787C1023.45 483.787 1022.32 483.053 1022.04 481.583L1021.19 474.262C1018.37 477.398 1015.55 479.908 1012.16 481.792C1008.77 483.676 1005.1 484.619 1000.87 484.619C997.486 484.619 994.382 483.954 991.561 482.627C988.739 481.297 986.198 479.341 984.222 476.764C982.247 474.184 980.837 470.967 979.709 467.119C978.58 463.27 978.017 458.846 978.017 453.846C978.017 449.402 978.58 445.264 979.709 441.435C981.12 437.606 982.814 434.28 985.071 431.464C987.329 428.645 989.866 426.433 993.253 424.827C996.357 423.219 1000.02 422.415 1003.97 422.415C1007.93 422.415 1011.03 423.041 1013.57 424.29C1016.11 425.54 1018.65 427.296 1020.62 429.558V396.104H1031.07V483.787H1024.86ZM1004.26 476.049C1007.93 476.049 1010.75 475.256 1013.29 473.667C1016.11 472.081 1018.37 469.838 1020.62 466.941V437.773C1018.65 435.154 1016.39 433.32 1014.13 432.268C1011.88 431.217 1009.34 430.691 1006.52 430.691C1000.87 430.691 996.64 432.694 993.536 436.701C990.432 440.711 989.02 446.424 989.02 453.846C989.02 457.775 989.303 461.136 990.15 463.936C990.714 466.732 991.561 469.033 992.972 470.839C994.382 472.645 995.794 473.964 997.769 474.799C999.744 475.631 1002 476.049 1004.26 476.049Z" fill="black"/>
<path d="M1073.39 422.534C1077.63 422.534 1081.58 423.269 1085.25 424.738C1088.91 426.205 1091.73 428.289 1094.27 430.988C1096.81 433.685 1098.79 436.949 1099.92 440.781C1101.33 444.61 1101.89 448.884 1101.89 453.606C1101.89 458.37 1101.33 462.655 1099.92 466.465C1098.79 470.274 1096.81 473.527 1094.27 476.227C1091.73 478.926 1088.91 480.999 1085.25 482.446C1081.58 483.896 1077.63 484.619 1073.39 484.619C1068.88 484.619 1064.93 483.896 1061.26 482.446C1057.88 480.999 1054.77 478.926 1052.23 476.227C1049.97 473.527 1048 470.274 1046.59 466.465C1045.18 462.655 1044.61 458.37 1044.61 453.606C1044.61 448.884 1045.18 444.61 1046.59 440.781C1048 436.949 1049.97 433.685 1052.23 430.988C1054.77 428.289 1057.88 426.205 1061.26 424.738C1064.93 423.269 1068.88 422.534 1073.39 422.534ZM1073.39 476.346C1079.32 476.346 1083.84 474.351 1086.66 470.363C1089.48 466.376 1091.17 460.81 1091.17 453.667C1091.17 446.485 1089.48 440.889 1086.66 436.879C1083.84 432.872 1079.32 430.869 1073.39 430.869C1070.29 430.869 1067.75 431.383 1065.49 432.416C1063.24 433.448 1061.26 434.937 1059.85 436.879C1058.44 438.824 1057.31 441.215 1056.46 444.053C1055.9 446.891 1055.62 450.094 1055.62 453.667C1055.62 457.237 1055.9 460.432 1056.46 463.251C1057.31 466.067 1058.44 468.438 1059.85 470.363C1061.26 472.289 1063.24 473.767 1065.49 474.799C1067.75 475.829 1070.29 476.346 1073.39 476.346Z" fill="black"/>
<path d="M1115.16 483.787V423.486H1121.36C1122.78 423.486 1123.9 424.221 1124.19 425.69L1125.03 432.238C1127.57 429.341 1130.67 427.001 1133.78 425.214C1137.16 423.428 1140.83 422.534 1145.07 422.534C1148.45 422.534 1151.28 423.08 1153.81 424.171C1156.35 425.264 1158.33 426.811 1160.02 428.815C1161.72 430.818 1163.13 433.228 1163.97 436.047C1164.82 438.863 1165.1 441.98 1165.1 445.391V483.787H1154.66V445.391C1154.66 440.828 1153.53 437.288 1151.56 434.767C1149.3 432.246 1146.2 430.988 1141.96 430.988C1138.86 430.988 1135.76 431.742 1133.22 433.251C1130.39 434.756 1127.85 436.801 1125.6 439.381V483.787H1115.16Z" fill="black"/>
<path d="M365.473 429.704C360.11 457.321 317.443 487.545 268.439 493.403C242.886 496.455 217.727 499.26 190.899 498.028C147.024 496.016 123.167 477.878 115.664 488.448C111.452 494.379 111.557 500.792 112.528 506.084C120.508 549.569 148.069 556.849 181.862 546.673C201.089 540.885 251.852 502.492 251.852 547.266C251.852 576.617 235.252 583.662 190.899 586.124C166.442 587.469 136.074 585.508 100.703 576.136C23.991 555.811 10.7982 473.955 8.77961 390.899C8.16433 366.239 8.54361 342.986 8.54361 323.538C8.54361 238.609 64.1319 213.714 64.1319 213.714C92.1609 200.829 140.256 195.41 190.256 195.001H191.485C241.485 195.41 289.612 200.829 317.639 213.714C317.639 213.714 373.225 238.609 373.225 323.538C373.225 323.538 373.922 386.199 365.473 429.704Z" fill="#FD8935"/>
<path fill-rule="evenodd" clip-rule="evenodd" d="M373.746 431.313C371.297 443.929 362.348 457.238 348.528 468.835C329.298 484.974 300.59 498.056 269.438 501.781C243.43 504.888 217.82 507.71 190.514 506.457C163.456 505.215 143.792 498.087 130.737 494.866C128.577 494.333 126.638 493.919 124.91 493.717C124.051 493.616 122.807 493.66 122.295 493.685C119.885 497.349 120.222 501.308 120.818 504.559C124.175 522.857 131.053 533.899 141.245 538.936C151.677 544.089 164.885 542.976 179.434 538.595C184.905 536.947 193.034 532.444 201.781 528.196C211.895 523.283 222.738 518.733 231.767 517.668C240.036 516.694 247.09 518.468 252.217 523.332C256.832 527.708 260.281 535.121 260.281 547.266C260.281 557.983 258.22 566.199 254.217 572.609C249.398 580.329 241.713 585.736 230.155 589.18C220.467 592.07 207.71 593.641 191.365 594.548H191.361C166.195 595.932 134.942 593.937 98.5459 584.293C57.3072 573.367 33.0162 546.032 18.8899 510.134C5.42116 475.912 1.38811 433.671 0.353505 391.109C-0.263885 366.372 0.115399 343.047 0.115399 323.538C0.115399 233.32 59.3574 206.602 60.6491 206.03C89.4578 192.801 138.826 186.983 190.187 186.563C190.21 186.563 190.233 186.563 190.257 186.563H191.485C191.508 186.563 191.531 186.563 191.555 186.563C242.903 186.983 292.295 192.799 321.086 206.015C321.712 206.29 381.637 232.78 381.654 323.472C381.669 325.014 382.225 387.657 373.746 431.313ZM357.198 428.094C365.513 385.288 364.797 323.633 364.797 323.633C364.797 323.601 364.797 323.569 364.797 323.538C364.797 244.901 314.196 221.416 314.196 221.416C314.171 221.405 314.145 221.392 314.12 221.382C286.875 208.855 240.057 203.839 191.449 203.438H190.292C141.685 203.839 94.8984 208.855 67.649 221.382C67.6237 221.392 67.5984 221.405 67.5731 221.416C67.5731 221.416 16.9725 244.901 16.9725 323.538C16.9725 342.924 16.5932 366.106 17.2063 390.688V390.694C18.1904 431.182 21.762 471.398 34.5733 503.949C46.7252 534.825 67.3877 558.58 102.859 567.979C137.203 577.079 166.686 579.005 190.434 577.699C205.135 576.883 216.627 575.609 225.343 573.008C232.193 570.966 237.064 568.243 239.922 563.668C242.499 559.54 243.424 554.163 243.424 547.266C243.424 540.754 242.809 536.753 239.953 535.078C237.947 533.899 235.337 534.133 232.463 534.608C227.995 535.35 223.079 537.126 218.109 539.248C205.274 544.724 192.178 552.379 184.289 554.754C165.047 560.548 147.581 560.882 133.786 554.066C119.75 547.133 108.86 532.802 104.237 507.609C102.91 500.376 103.038 491.665 108.793 483.558C112.737 478.005 118.894 475.752 128.168 477.129C140.36 478.939 160.974 488.209 191.285 489.6C217.635 490.81 242.343 488.022 267.441 485.024C295.093 481.719 320.627 470.23 337.699 455.903C348.081 447.19 355.359 437.571 357.198 428.094Z" fill="#352B21"/>
<path fill-rule="evenodd" clip-rule="evenodd" d="M190.836 8.43724C215.968 8.43724 247.398 69.6325 247.398 100.882C247.398 126.059 230.948 147.42 208.231 154.771C204.063 156.121 206.033 195.006 204.914 194.999C203.296 194.991 178.817 195.008 177.366 194.999C175.646 194.993 178.925 156.545 173.444 154.771C150.725 147.42 134.275 126.059 134.275 100.882C134.275 69.6325 165.705 8.43724 190.836 8.43724Z" fill="#85D023"/>
<path fill-rule="evenodd" clip-rule="evenodd" d="M214.754 161.385C214.483 163.687 214.089 167.45 213.979 170.616C213.648 180.177 213.859 191.156 213.566 194.624C212.909 202.392 206.111 203.443 204.87 203.437C203.252 203.428 178.777 203.445 177.325 203.437C175.25 203.428 173.17 202.77 171.329 200.941C170.593 200.209 169.618 199.007 169.038 197.039C168.76 196.096 168.459 194.029 168.397 191.169C168.282 185.872 168.587 176.248 168.202 168.293C168.094 166.064 167.723 163.339 167.458 161.596C143.125 152.191 125.846 128.541 125.846 100.882C125.846 77.4601 142.134 38.2418 161.259 16.8702C170.835 6.1655 181.403 1.52588e-05 190.836 1.52588e-05C200.27 1.52588e-05 210.837 6.1655 220.414 16.8702C239.539 38.2418 255.827 77.4601 255.827 100.882C255.827 128.337 238.803 151.841 214.754 161.385ZM185.417 186.564C188.986 186.564 193.182 186.562 196.774 186.56C196.827 177.988 197.092 163.429 198.23 157.188C198.795 154.096 199.764 151.843 200.645 150.55C202.103 148.411 203.917 147.299 205.637 146.743C224.972 140.486 238.97 122.308 238.97 100.882C238.97 83.4274 228.187 56.0295 214.708 36.8285C210.391 30.6798 205.797 25.3793 201.119 21.6521C197.609 18.8531 194.212 16.8745 190.836 16.8745C187.461 16.8745 184.064 18.8531 180.554 21.6521C175.876 25.3793 171.284 30.6798 166.967 36.8285C153.485 56.0295 142.703 83.4274 142.703 100.882C142.703 122.308 156.703 140.486 176.036 146.743C178.788 147.635 182.469 150.733 183.862 157.032C185.271 163.414 185.444 178.102 185.417 186.564Z" fill="#352B21"/>
<path d="M270.606 269.305C271.848 276.39 278.593 281.124 285.672 279.879C292.751 278.635 297.484 271.882 296.242 264.798C295.001 257.713 288.256 252.98 281.176 254.224C274.097 255.469 269.365 262.221 270.606 269.305Z" fill="#352B21"/>
<path d="M260.545 301.526C261.786 308.611 268.531 313.345 275.61 312.1C282.69 310.855 287.422 304.103 286.181 297.019C284.939 289.934 278.194 285.2 271.115 286.445C264.036 287.69 259.303 294.442 260.545 301.526Z" fill="#352B21"/>
<path d="M293.628 293.597C294.869 300.681 301.614 305.416 308.693 304.171C315.773 302.926 320.505 296.174 319.264 289.089C318.022 282.005 311.277 277.271 304.198 278.516C297.119 279.761 292.386 286.512 293.628 293.597Z" fill="#352B21"/>
<path fill-rule="evenodd" clip-rule="evenodd" d="M82.5546 234.573C89.4221 231.902 97.1626 235.317 99.8318 242.192C102.501 249.068 99.0989 256.813 92.2242 259.493C85.8437 261.974 80.6139 266.851 76.8212 275.292C73.8015 282.018 65.8958 285.02 59.1751 281.995C52.4543 278.971 49.4513 271.053 52.471 264.327C59.7363 248.149 70.3173 239.336 82.5546 234.573Z" fill="#FFE2CC"/>
</svg>
